<svg width="394" height="139" viewBox="0 0 394 139" fill="none" xmlns="http://www.w3.org/2000/svg">
<path d="M103.252 68.739L63.8985 62.1983L20.3449 23.827L51.6596 0.586502L85.4992 17.8921L103.252 68.739Z" fill="#AE2CD1" stroke="#AE2CD1"/>
<path d="M71.9617 136.861L58.1562 117.49L63.4457 62.5881L103.274 69.7483L92.1526 93.8456L92.1512 93.8486L71.9617 136.861Z" fill="#9200BA" stroke="#9200BA"/>
<path d="M71.1014 137.374L37.6603 138.318L57.5782 118.4L71.1014 137.374Z" fill="#8401A8" stroke="#8401A8"/>
<path d="M0.522478 102.853L19.8368 24.7129L62.4778 62.2066L57.1608 117.402L36.3026 138.26L9.44195 126.748L0.522478 102.853Z" fill="#9025AD" stroke="#9025AD"/>
<path d="M187.277 27.789V69H180.522V42.381C180.522 41.317 180.579 40.1675 180.693 38.9325L168.239 62.331C167.65 63.452 166.747 64.0125 165.531 64.0125H164.448C163.232 64.0125 162.33 63.452 161.741 62.331L149.144 38.847C149.201 39.474 149.248 40.0915 149.286 40.6995C149.324 41.3075 149.343 41.868 149.343 42.381V69H142.589V27.789H148.374C148.716 27.789 149.011 27.7985 149.258 27.8175C149.505 27.8365 149.723 27.884 149.913 27.96C150.122 28.036 150.303 28.1595 150.455 28.3305C150.626 28.5015 150.787 28.7295 150.939 29.0145L163.28 51.9C163.603 52.508 163.897 53.135 164.163 53.781C164.448 54.427 164.724 55.092 164.99 55.776C165.256 55.073 165.531 54.3985 165.816 53.7525C166.101 53.0875 166.405 52.451 166.728 51.843L178.898 29.0145C179.05 28.7295 179.211 28.5015 179.382 28.3305C179.553 28.1595 179.734 28.036 179.924 27.96C180.133 27.884 180.361 27.8365 180.608 27.8175C180.855 27.7985 181.149 27.789 181.491 27.789H187.277ZM215.783 56.517C213.75 56.612 212.04 56.7925 210.653 57.0585C209.266 57.3055 208.155 57.6285 207.319 58.0275C206.483 58.4265 205.884 58.892 205.523 59.424C205.162 59.956 204.982 60.5355 204.982 61.1625C204.982 62.3975 205.343 63.281 206.065 63.813C206.806 64.345 207.765 64.611 208.943 64.611C210.387 64.611 211.632 64.3545 212.677 63.8415C213.741 63.3095 214.776 62.5115 215.783 61.4475V56.517ZM199.652 43.8345C203.015 40.7565 207.062 39.2175 211.793 39.2175C213.503 39.2175 215.033 39.5025 216.382 40.0725C217.731 40.6235 218.871 41.4025 219.802 42.4095C220.733 43.3975 221.436 44.585 221.911 45.972C222.405 47.359 222.652 48.879 222.652 50.532V69H219.46C218.795 69 218.282 68.905 217.921 68.715C217.56 68.506 217.275 68.0975 217.066 67.4895L216.439 65.3805C215.698 66.0455 214.976 66.6345 214.273 67.1475C213.57 67.6415 212.838 68.0595 212.078 68.4015C211.318 68.7435 210.501 69 209.627 69.171C208.772 69.361 207.822 69.456 206.777 69.456C205.542 69.456 204.402 69.2945 203.357 68.9715C202.312 68.6295 201.41 68.126 200.65 67.461C199.89 66.796 199.301 65.9695 198.883 64.9815C198.465 63.9935 198.256 62.844 198.256 61.533C198.256 60.792 198.379 60.0605 198.626 59.3385C198.873 58.5975 199.272 57.8945 199.823 57.2295C200.393 56.5645 201.125 55.9375 202.018 55.3485C202.911 54.7595 204.003 54.2465 205.295 53.8095C206.606 53.3725 208.126 53.021 209.855 52.755C211.584 52.47 213.56 52.299 215.783 52.242V50.532C215.783 48.575 215.365 47.131 214.529 46.2C213.693 45.25 212.487 44.775 210.91 44.775C209.77 44.775 208.82 44.908 208.06 45.174C207.319 45.44 206.663 45.744 206.093 46.086C205.523 46.409 205.001 46.7035 204.526 46.9695C204.07 47.2355 203.557 47.3685 202.987 47.3685C202.493 47.3685 202.075 47.245 201.733 46.998C201.391 46.732 201.115 46.428 200.906 46.086L199.652 43.8345ZM244.339 69.456C241.793 69.456 239.836 68.7435 238.468 67.3185C237.119 65.8745 236.444 63.889 236.444 61.362V45.0315H233.452C233.072 45.0315 232.749 44.908 232.483 44.661C232.217 44.414 232.084 44.0435 232.084 43.5495V40.7565L236.786 39.987L238.268 32.007C238.363 31.627 238.544 31.3325 238.81 31.1235C239.076 30.9145 239.418 30.81 239.836 30.81H243.484V40.0155H255.653L257.164 32.007C257.259 31.627 257.43 31.3325 257.677 31.1235C257.943 30.9145 258.294 30.81 258.731 30.81H262.351V40.0155H270.16V45.0315H262.351V60.8775C262.351 61.7895 262.579 62.502 263.035 63.015C263.491 63.528 264.108 63.7845 264.887 63.7845C265.305 63.7845 265.666 63.737 265.97 63.642C266.274 63.528 266.531 63.414 266.74 63.3C266.968 63.186 267.167 63.0815 267.338 62.9865C267.509 62.8725 267.68 62.8155 267.851 62.8155C268.06 62.8155 268.231 62.8725 268.364 62.9865C268.497 63.0815 268.64 63.2335 268.792 63.4425L270.901 66.8625C269.875 67.7175 268.697 68.3635 267.367 68.8005C266.037 69.2375 264.659 69.456 263.234 69.456C260.688 69.456 258.731 68.7435 257.363 67.3185C255.995 65.8745 255.311 63.889 255.311 61.362V45.0315H243.484V60.8775C243.484 61.7895 243.702 62.502 244.139 63.015C244.595 63.528 245.213 63.7845 245.992 63.7845C246.429 63.7845 246.79 63.737 247.075 63.642C247.379 63.528 247.635 63.414 247.844 63.3C248.072 63.186 248.272 63.0815 248.443 62.9865C248.614 62.8725 248.785 62.8155 248.956 62.8155C249.165 62.8155 249.336 62.8725 249.469 62.9865C249.602 63.0815 249.744 63.2335 249.896 63.4425L252.005 66.8625C250.979 67.7175 249.801 68.3635 248.471 68.8005C247.141 69.2375 245.764 69.456 244.339 69.456ZM298.986 51.0165C298.986 50.1045 298.853 49.2495 298.587 48.4515C298.34 47.6345 297.96 46.922 297.447 46.314C296.934 45.706 296.278 45.231 295.48 44.889C294.701 44.528 293.789 44.3475 292.744 44.3475C290.711 44.3475 289.106 44.927 287.928 46.086C286.769 47.245 286.028 48.8885 285.705 51.0165H298.986ZM285.562 55.263C285.676 56.764 285.942 58.0655 286.36 59.1675C286.778 60.2505 287.329 61.153 288.013 61.875C288.697 62.578 289.505 63.11 290.436 63.471C291.386 63.813 292.431 63.984 293.571 63.984C294.711 63.984 295.689 63.851 296.506 63.585C297.342 63.319 298.064 63.0245 298.672 62.7015C299.299 62.3785 299.841 62.084 300.297 61.818C300.772 61.552 301.228 61.419 301.665 61.419C302.254 61.419 302.691 61.6375 302.976 62.0745L304.999 64.6395C304.22 65.5515 303.346 66.321 302.377 66.948C301.408 67.556 300.392 68.05 299.328 68.43C298.283 68.791 297.209 69.0475 296.107 69.1995C295.024 69.3515 293.97 69.4275 292.944 69.4275C290.911 69.4275 289.02 69.095 287.272 68.43C285.524 67.746 284.004 66.7485 282.712 65.4375C281.42 64.1075 280.404 62.4735 279.663 60.5355C278.922 58.5785 278.551 56.3175 278.551 53.7525C278.551 51.7575 278.874 49.886 279.52 48.138C280.166 46.371 281.088 44.8415 282.285 43.5495C283.501 42.2385 284.973 41.203 286.702 40.443C288.45 39.683 290.417 39.303 292.602 39.303C294.445 39.303 296.145 39.5975 297.703 40.1865C299.261 40.7755 300.601 41.64 301.722 42.78C302.843 43.901 303.717 45.288 304.344 46.941C304.99 48.575 305.313 50.4465 305.313 52.5555C305.313 53.6195 305.199 54.3415 304.971 54.7215C304.743 55.0825 304.306 55.263 303.66 55.263H285.562ZM322.936 44.832C323.848 43.084 324.931 41.716 326.185 40.728C327.439 39.721 328.921 39.2175 330.631 39.2175C331.98 39.2175 333.063 39.512 333.88 40.101L333.424 45.3735C333.329 45.7155 333.187 45.9625 332.997 46.1145C332.826 46.2475 332.588 46.314 332.284 46.314C331.999 46.314 331.572 46.2665 331.002 46.1715C330.451 46.0765 329.909 46.029 329.377 46.029C328.598 46.029 327.905 46.143 327.297 46.371C326.689 46.599 326.138 46.9315 325.644 47.3685C325.169 47.7865 324.741 48.2995 324.361 48.9075C324 49.5155 323.658 50.209 323.335 50.988V69H316.296V39.759H320.428C321.15 39.759 321.654 39.892 321.939 40.158C322.224 40.405 322.414 40.861 322.509 41.526L322.936 44.832ZM351.565 69H343.87V27.789H351.565V69ZM391.375 69H384.592C384.079 69 383.661 68.867 383.338 68.601C383.034 68.335 382.777 68.031 382.568 67.689L376.384 57.5145C376.289 57.8375 376.175 58.1415 376.042 58.4265C375.928 58.7115 375.795 58.9775 375.643 59.2245L370.171 67.689C369.962 68.012 369.705 68.316 369.401 68.601C369.097 68.867 368.717 69 368.261 69H361.963L371.995 53.9235L362.362 39.759H369.145C369.658 39.759 370.038 39.835 370.285 39.987C370.532 40.12 370.75 40.348 370.94 40.671L377.068 50.418C377.277 49.772 377.571 49.1355 377.951 48.5085L382.882 40.8135C383.3 40.1105 383.841 39.759 384.506 39.759H390.976L381.371 53.61L391.375 69Z" fill="#272727"/>
<path d="M149.064 88.813C149.01 88.915 148.932 88.966 148.83 88.966C148.752 88.966 148.65 88.912 148.524 88.804C148.404 88.69 148.239 88.567 148.029 88.435C147.819 88.297 147.555 88.171 147.237 88.057C146.925 87.943 146.538 87.886 146.076 87.886C145.614 87.886 145.206 87.952 144.852 88.084C144.504 88.216 144.21 88.396 143.97 88.624C143.736 88.852 143.556 89.116 143.43 89.416C143.31 89.716 143.25 90.031 143.25 90.361C143.25 90.793 143.34 91.15 143.52 91.432C143.706 91.714 143.949 91.954 144.249 92.152C144.549 92.35 144.888 92.518 145.266 92.656C145.65 92.788 146.043 92.92 146.445 93.052C146.847 93.184 147.237 93.331 147.615 93.493C147.999 93.649 148.341 93.847 148.641 94.087C148.941 94.327 149.181 94.624 149.361 94.978C149.547 95.326 149.64 95.761 149.64 96.283C149.64 96.817 149.547 97.321 149.361 97.795C149.181 98.263 148.917 98.671 148.569 99.019C148.221 99.367 147.795 99.643 147.291 99.847C146.787 100.045 146.211 100.144 145.563 100.144C144.723 100.144 144 99.997 143.394 99.703C142.788 99.403 142.257 98.995 141.801 98.479L142.053 98.083C142.125 97.993 142.209 97.948 142.305 97.948C142.359 97.948 142.428 97.984 142.512 98.056C142.596 98.128 142.698 98.218 142.818 98.326C142.938 98.428 143.082 98.542 143.25 98.668C143.418 98.788 143.613 98.902 143.835 99.01C144.057 99.112 144.312 99.199 144.6 99.271C144.888 99.343 145.215 99.379 145.581 99.379C146.085 99.379 146.535 99.304 146.931 99.154C147.327 98.998 147.66 98.788 147.93 98.524C148.206 98.26 148.416 97.948 148.56 97.588C148.704 97.222 148.776 96.832 148.776 96.418C148.776 95.968 148.683 95.599 148.497 95.311C148.317 95.017 148.077 94.774 147.777 94.582C147.477 94.384 147.135 94.219 146.751 94.087C146.373 93.955 145.983 93.826 145.581 93.7C145.179 93.574 144.786 93.433 144.402 93.277C144.024 93.121 143.685 92.923 143.385 92.683C143.085 92.437 142.842 92.134 142.656 91.774C142.476 91.408 142.386 90.952 142.386 90.406C142.386 89.98 142.467 89.569 142.629 89.173C142.791 88.777 143.028 88.429 143.34 88.129C143.652 87.823 144.036 87.58 144.492 87.4C144.954 87.214 145.479 87.121 146.067 87.121C146.727 87.121 147.318 87.226 147.84 87.436C148.368 87.646 148.848 87.967 149.28 88.399L149.064 88.813ZM152.922 91.045V100H152.067V91.045H152.922ZM153.291 87.958C153.291 88.066 153.267 88.168 153.219 88.264C153.177 88.354 153.12 88.435 153.048 88.507C152.976 88.579 152.892 88.636 152.796 88.678C152.7 88.72 152.598 88.741 152.49 88.741C152.382 88.741 152.28 88.72 152.184 88.678C152.088 88.636 152.004 88.579 151.932 88.507C151.86 88.435 151.803 88.354 151.761 88.264C151.719 88.168 151.698 88.066 151.698 87.958C151.698 87.85 151.719 87.748 151.761 87.652C151.803 87.55 151.86 87.463 151.932 87.391C152.004 87.319 152.088 87.262 152.184 87.22C152.28 87.178 152.382 87.157 152.49 87.157C152.598 87.157 152.7 87.178 152.796 87.22C152.892 87.262 152.976 87.319 153.048 87.391C153.12 87.463 153.177 87.55 153.219 87.652C153.267 87.748 153.291 87.85 153.291 87.958ZM155.976 100V91.045H156.453C156.603 91.045 156.69 91.12 156.714 91.27L156.795 92.566C157.143 92.068 157.542 91.666 157.992 91.36C158.442 91.054 158.949 90.901 159.513 90.901C160.167 90.901 160.689 91.09 161.079 91.468C161.475 91.846 161.742 92.371 161.88 93.043C161.988 92.677 162.138 92.359 162.33 92.089C162.528 91.819 162.753 91.597 163.005 91.423C163.257 91.243 163.53 91.111 163.824 91.027C164.124 90.943 164.43 90.901 164.742 90.901C165.186 90.901 165.585 90.976 165.939 91.126C166.293 91.27 166.593 91.486 166.839 91.774C167.085 92.062 167.274 92.416 167.406 92.836C167.538 93.256 167.604 93.736 167.604 94.276V100H166.749V94.276C166.749 93.4 166.56 92.734 166.182 92.278C165.804 91.816 165.264 91.585 164.562 91.585C164.25 91.585 163.95 91.642 163.662 91.756C163.38 91.87 163.128 92.041 162.906 92.269C162.69 92.491 162.516 92.77 162.384 93.106C162.258 93.442 162.195 93.832 162.195 94.276V100H161.331V94.276C161.331 93.406 161.157 92.74 160.809 92.278C160.467 91.816 159.963 91.585 159.297 91.585C158.811 91.585 158.361 91.729 157.947 92.017C157.533 92.305 157.164 92.704 156.84 93.214V100H155.976ZM171.324 98.047C171.498 98.305 171.678 98.524 171.864 98.704C172.056 98.878 172.257 99.022 172.467 99.136C172.677 99.244 172.899 99.322 173.133 99.37C173.373 99.418 173.625 99.442 173.889 99.442C174.417 99.442 174.879 99.346 175.275 99.154C175.671 98.962 176.001 98.692 176.265 98.344C176.535 97.99 176.736 97.57 176.868 97.084C177.006 96.592 177.075 96.052 177.075 95.464C177.075 94.132 176.829 93.154 176.337 92.53C175.845 91.9 175.14 91.585 174.222 91.585C173.628 91.585 173.091 91.738 172.611 92.044C172.131 92.35 171.702 92.776 171.324 93.322V98.047ZM171.288 92.656C171.684 92.116 172.146 91.687 172.674 91.369C173.208 91.051 173.805 90.892 174.465 90.892C175.563 90.892 176.418 91.273 177.03 92.035C177.648 92.797 177.957 93.94 177.957 95.464C177.957 96.118 177.87 96.73 177.696 97.3C177.528 97.864 177.276 98.356 176.94 98.776C176.61 99.19 176.202 99.517 175.716 99.757C175.236 99.997 174.681 100.117 174.051 100.117C173.445 100.117 172.92 100.006 172.476 99.784C172.032 99.562 171.648 99.235 171.324 98.803V103.168H170.46V91.045H170.937C171.087 91.045 171.174 91.12 171.198 91.27L171.288 92.656ZM181.337 86.905V100H180.473V86.905H181.337ZM190.647 94.618C190.647 94.138 190.578 93.709 190.44 93.331C190.308 92.947 190.119 92.623 189.873 92.359C189.627 92.095 189.333 91.894 188.991 91.756C188.655 91.612 188.283 91.54 187.875 91.54C187.413 91.54 186.999 91.612 186.633 91.756C186.267 91.9 185.949 92.107 185.679 92.377C185.415 92.647 185.202 92.971 185.04 93.349C184.878 93.727 184.77 94.15 184.716 94.618H190.647ZM184.671 95.167V95.338C184.671 96.01 184.749 96.601 184.905 97.111C185.061 97.621 185.283 98.05 185.571 98.398C185.859 98.74 186.207 98.998 186.615 99.172C187.023 99.346 187.479 99.433 187.983 99.433C188.433 99.433 188.823 99.385 189.153 99.289C189.483 99.187 189.759 99.076 189.981 98.956C190.209 98.83 190.389 98.719 190.521 98.623C190.653 98.521 190.749 98.47 190.809 98.47C190.887 98.47 190.947 98.5 190.989 98.56L191.223 98.848C191.079 99.028 190.887 99.196 190.647 99.352C190.413 99.508 190.149 99.643 189.855 99.757C189.567 99.865 189.255 99.952 188.919 100.018C188.589 100.084 188.256 100.117 187.92 100.117C187.308 100.117 186.75 100.012 186.246 99.802C185.742 99.586 185.31 99.274 184.95 98.866C184.59 98.458 184.311 97.96 184.113 97.372C183.921 96.778 183.825 96.1 183.825 95.338C183.825 94.696 183.915 94.105 184.095 93.565C184.281 93.019 184.545 92.551 184.887 92.161C185.235 91.765 185.658 91.456 186.156 91.234C186.66 91.012 187.23 90.901 187.866 90.901C188.37 90.901 188.838 90.988 189.27 91.162C189.702 91.336 190.077 91.591 190.395 91.927C190.713 92.257 190.962 92.665 191.142 93.151C191.328 93.637 191.421 94.195 191.421 94.825C191.421 94.957 191.403 95.047 191.367 95.095C191.331 95.143 191.271 95.167 191.187 95.167H184.671ZM204.749 92.971C204.407 92.455 204.026 92.092 203.606 91.882C203.192 91.672 202.718 91.567 202.184 91.567C201.656 91.567 201.194 91.663 200.798 91.855C200.402 92.047 200.069 92.32 199.799 92.674C199.535 93.022 199.334 93.442 199.196 93.934C199.064 94.42 198.998 94.957 198.998 95.545C198.998 96.877 199.241 97.858 199.727 98.488C200.219 99.112 200.927 99.424 201.851 99.424C202.439 99.424 202.976 99.271 203.462 98.965C203.948 98.659 204.377 98.23 204.749 97.678V92.971ZM205.604 86.905V100H205.136C204.98 100 204.89 99.922 204.866 99.766L204.776 98.353C204.38 98.893 203.918 99.322 203.39 99.64C202.862 99.958 202.268 100.117 201.608 100.117C200.504 100.117 199.646 99.736 199.034 98.974C198.422 98.212 198.116 97.069 198.116 95.545C198.116 94.891 198.2 94.282 198.368 93.718C198.542 93.148 198.794 92.656 199.124 92.242C199.454 91.822 199.859 91.492 200.339 91.252C200.825 91.012 201.383 90.892 202.013 90.892C202.619 90.892 203.144 91.003 203.588 91.225C204.032 91.447 204.419 91.777 204.749 92.215V86.905H205.604ZM214.834 94.618C214.834 94.138 214.765 93.709 214.627 93.331C214.495 92.947 214.306 92.623 214.06 92.359C213.814 92.095 213.52 91.894 213.178 91.756C212.842 91.612 212.47 91.54 212.062 91.54C211.6 91.54 211.186 91.612 210.82 91.756C210.454 91.9 210.136 92.107 209.866 92.377C209.602 92.647 209.389 92.971 209.227 93.349C209.065 93.727 208.957 94.15 208.903 94.618H214.834ZM208.858 95.167V95.338C208.858 96.01 208.936 96.601 209.092 97.111C209.248 97.621 209.47 98.05 209.758 98.398C210.046 98.74 210.394 98.998 210.802 99.172C211.21 99.346 211.666 99.433 212.17 99.433C212.62 99.433 213.01 99.385 213.34 99.289C213.67 99.187 213.946 99.076 214.168 98.956C214.396 98.83 214.576 98.719 214.708 98.623C214.84 98.521 214.936 98.47 214.996 98.47C215.074 98.47 215.134 98.5 215.176 98.56L215.41 98.848C215.266 99.028 215.074 99.196 214.834 99.352C214.6 99.508 214.336 99.643 214.042 99.757C213.754 99.865 213.442 99.952 213.106 100.018C212.776 100.084 212.443 100.117 212.107 100.117C211.495 100.117 210.937 100.012 210.433 99.802C209.929 99.586 209.497 99.274 209.137 98.866C208.777 98.458 208.498 97.96 208.3 97.372C208.108 96.778 208.012 96.1 208.012 95.338C208.012 94.696 208.102 94.105 208.282 93.565C208.468 93.019 208.732 92.551 209.074 92.161C209.422 91.765 209.845 91.456 210.343 91.234C210.847 91.012 211.417 90.901 212.053 90.901C212.557 90.901 213.025 90.988 213.457 91.162C213.889 91.336 214.264 91.591 214.582 91.927C214.9 92.257 215.149 92.665 215.329 93.151C215.515 93.637 215.608 94.195 215.608 94.825C215.608 94.957 215.59 95.047 215.554 95.095C215.518 95.143 215.458 95.167 215.374 95.167H208.858ZM224.221 94.618C224.221 94.138 224.152 93.709 224.014 93.331C223.882 92.947 223.693 92.623 223.447 92.359C223.201 92.095 222.907 91.894 222.565 91.756C222.229 91.612 221.857 91.54 221.449 91.54C220.987 91.54 220.573 91.612 220.207 91.756C219.841 91.9 219.523 92.107 219.253 92.377C218.989 92.647 218.776 92.971 218.614 93.349C218.452 93.727 218.344 94.15 218.29 94.618H224.221ZM218.245 95.167V95.338C218.245 96.01 218.323 96.601 218.479 97.111C218.635 97.621 218.857 98.05 219.145 98.398C219.433 98.74 219.781 98.998 220.189 99.172C220.597 99.346 221.053 99.433 221.557 99.433C222.007 99.433 222.397 99.385 222.727 99.289C223.057 99.187 223.333 99.076 223.555 98.956C223.783 98.83 223.963 98.719 224.095 98.623C224.227 98.521 224.323 98.47 224.383 98.47C224.461 98.47 224.521 98.5 224.563 98.56L224.797 98.848C224.653 99.028 224.461 99.196 224.221 99.352C223.987 99.508 223.723 99.643 223.429 99.757C223.141 99.865 222.829 99.952 222.493 100.018C222.163 100.084 221.83 100.117 221.494 100.117C220.882 100.117 220.324 100.012 219.82 99.802C219.316 99.586 218.884 99.274 218.524 98.866C218.164 98.458 217.885 97.96 217.687 97.372C217.495 96.778 217.399 96.1 217.399 95.338C217.399 94.696 217.489 94.105 217.669 93.565C217.855 93.019 218.119 92.551 218.461 92.161C218.809 91.765 219.232 91.456 219.73 91.234C220.234 91.012 220.804 90.901 221.44 90.901C221.944 90.901 222.412 90.988 222.844 91.162C223.276 91.336 223.651 91.591 223.969 91.927C224.287 92.257 224.536 92.665 224.716 93.151C224.902 93.637 224.995 94.195 224.995 94.825C224.995 94.957 224.977 95.047 224.941 95.095C224.905 95.143 224.845 95.167 224.761 95.167H218.245ZM228.19 98.047C228.364 98.305 228.544 98.524 228.73 98.704C228.922 98.878 229.123 99.022 229.333 99.136C229.543 99.244 229.765 99.322 229.999 99.37C230.239 99.418 230.491 99.442 230.755 99.442C231.283 99.442 231.745 99.346 232.141 99.154C232.537 98.962 232.867 98.692 233.131 98.344C233.401 97.99 233.602 97.57 233.734 97.084C233.872 96.592 233.941 96.052 233.941 95.464C233.941 94.132 233.695 93.154 233.203 92.53C232.711 91.9 232.006 91.585 231.088 91.585C230.494 91.585 229.957 91.738 229.477 92.044C228.997 92.35 228.568 92.776 228.19 93.322V98.047ZM228.154 92.656C228.55 92.116 229.012 91.687 229.54 91.369C230.074 91.051 230.671 90.892 231.331 90.892C232.429 90.892 233.284 91.273 233.896 92.035C234.514 92.797 234.823 93.94 234.823 95.464C234.823 96.118 234.736 96.73 234.562 97.3C234.394 97.864 234.142 98.356 233.806 98.776C233.476 99.19 233.068 99.517 232.582 99.757C232.102 99.997 231.547 100.117 230.917 100.117C230.311 100.117 229.786 100.006 229.342 99.784C228.898 99.562 228.514 99.235 228.19 98.803V103.168H227.326V91.045H227.803C227.953 91.045 228.04 91.12 228.064 91.27L228.154 92.656ZM243.089 86.905V100H242.225V86.905H243.089ZM252.399 94.618C252.399 94.138 252.33 93.709 252.192 93.331C252.06 92.947 251.871 92.623 251.625 92.359C251.379 92.095 251.085 91.894 250.743 91.756C250.407 91.612 250.035 91.54 249.627 91.54C249.165 91.54 248.751 91.612 248.385 91.756C248.019 91.9 247.701 92.107 247.431 92.377C247.167 92.647 246.954 92.971 246.792 93.349C246.63 93.727 246.522 94.15 246.468 94.618H252.399ZM246.423 95.167V95.338C246.423 96.01 246.501 96.601 246.657 97.111C246.813 97.621 247.035 98.05 247.323 98.398C247.611 98.74 247.959 98.998 248.367 99.172C248.775 99.346 249.231 99.433 249.735 99.433C250.185 99.433 250.575 99.385 250.905 99.289C251.235 99.187 251.511 99.076 251.733 98.956C251.961 98.83 252.141 98.719 252.273 98.623C252.405 98.521 252.501 98.47 252.561 98.47C252.639 98.47 252.699 98.5 252.741 98.56L252.975 98.848C252.831 99.028 252.639 99.196 252.399 99.352C252.165 99.508 251.901 99.643 251.607 99.757C251.319 99.865 251.007 99.952 250.671 100.018C250.341 100.084 250.008 100.117 249.672 100.117C249.06 100.117 248.502 100.012 247.998 99.802C247.494 99.586 247.062 99.274 246.702 98.866C246.342 98.458 246.063 97.96 245.865 97.372C245.673 96.778 245.577 96.1 245.577 95.338C245.577 94.696 245.667 94.105 245.847 93.565C246.033 93.019 246.297 92.551 246.639 92.161C246.987 91.765 247.41 91.456 247.908 91.234C248.412 91.012 248.982 90.901 249.618 90.901C250.122 90.901 250.59 90.988 251.022 91.162C251.454 91.336 251.829 91.591 252.147 91.927C252.465 92.257 252.714 92.665 252.894 93.151C253.08 93.637 253.173 94.195 253.173 94.825C253.173 94.957 253.155 95.047 253.119 95.095C253.083 95.143 253.023 95.167 252.939 95.167H246.423ZM260.516 95.671C259.664 95.701 258.929 95.77 258.311 95.878C257.699 95.98 257.192 96.121 256.79 96.301C256.394 96.481 256.1 96.697 255.908 96.949C255.716 97.195 255.62 97.477 255.62 97.795C255.62 98.095 255.668 98.356 255.764 98.578C255.866 98.794 255.998 98.974 256.16 99.118C256.328 99.256 256.52 99.358 256.736 99.424C256.952 99.49 257.177 99.523 257.411 99.523C257.759 99.523 258.077 99.487 258.365 99.415C258.659 99.337 258.929 99.232 259.175 99.1C259.427 98.962 259.661 98.8 259.877 98.614C260.093 98.428 260.306 98.227 260.516 98.011V95.671ZM255.251 92.314C255.719 91.846 256.211 91.492 256.727 91.252C257.243 91.012 257.828 90.892 258.482 90.892C258.962 90.892 259.382 90.97 259.742 91.126C260.102 91.276 260.399 91.495 260.633 91.783C260.873 92.065 261.053 92.41 261.173 92.818C261.293 93.22 261.353 93.67 261.353 94.168V100H261.011C260.831 100 260.72 99.916 260.678 99.748L260.552 98.596C260.306 98.836 260.06 99.052 259.814 99.244C259.574 99.436 259.322 99.598 259.058 99.73C258.794 99.862 258.509 99.964 258.203 100.036C257.897 100.108 257.561 100.144 257.195 100.144C256.889 100.144 256.592 100.099 256.304 100.009C256.016 99.919 255.758 99.781 255.53 99.595C255.308 99.409 255.128 99.172 254.99 98.884C254.858 98.59 254.792 98.239 254.792 97.831C254.792 97.453 254.9 97.102 255.116 96.778C255.332 96.454 255.671 96.172 256.133 95.932C256.595 95.692 257.186 95.5 257.906 95.356C258.632 95.212 259.502 95.128 260.516 95.104V94.168C260.516 93.34 260.336 92.704 259.976 92.26C259.622 91.81 259.094 91.585 258.392 91.585C257.96 91.585 257.591 91.645 257.285 91.765C256.985 91.885 256.73 92.017 256.52 92.161C256.31 92.305 256.139 92.437 256.007 92.557C255.875 92.677 255.764 92.737 255.674 92.737C255.608 92.737 255.554 92.722 255.512 92.692C255.47 92.662 255.434 92.623 255.404 92.575L255.251 92.314ZM265.041 93.205C265.179 92.839 265.335 92.515 265.509 92.233C265.689 91.945 265.893 91.702 266.121 91.504C266.355 91.306 266.613 91.156 266.895 91.054C267.183 90.946 267.501 90.892 267.849 90.892C268.035 90.892 268.218 90.91 268.398 90.946C268.578 90.976 268.737 91.033 268.875 91.117L268.803 91.711C268.773 91.807 268.716 91.855 268.632 91.855C268.56 91.855 268.449 91.834 268.299 91.792C268.155 91.75 267.963 91.729 267.723 91.729C267.375 91.729 267.066 91.783 266.796 91.891C266.532 91.993 266.292 92.149 266.076 92.359C265.866 92.569 265.68 92.83 265.518 93.142C265.362 93.448 265.218 93.802 265.086 94.204V100H264.222V91.045H264.681C264.783 91.045 264.855 91.066 264.897 91.108C264.939 91.15 264.966 91.222 264.978 91.324L265.041 93.205ZM271.404 92.611C271.818 92.095 272.295 91.681 272.835 91.369C273.381 91.057 273.987 90.901 274.653 90.901C275.145 90.901 275.577 90.979 275.949 91.135C276.327 91.291 276.639 91.516 276.885 91.81C277.131 92.104 277.317 92.458 277.443 92.872C277.569 93.286 277.632 93.754 277.632 94.276V100H276.768V94.276C276.768 93.436 276.576 92.779 276.192 92.305C275.808 91.825 275.223 91.585 274.437 91.585C273.855 91.585 273.309 91.735 272.799 92.035C272.295 92.329 271.845 92.74 271.449 93.268V100H270.585V91.045H271.062C271.212 91.045 271.299 91.12 271.323 91.27L271.404 92.611ZM281.436 91.045V100H280.581V91.045H281.436ZM281.805 87.958C281.805 88.066 281.781 88.168 281.733 88.264C281.691 88.354 281.634 88.435 281.562 88.507C281.49 88.579 281.406 88.636 281.31 88.678C281.214 88.72 281.112 88.741 281.004 88.741C280.896 88.741 280.794 88.72 280.698 88.678C280.602 88.636 280.518 88.579 280.446 88.507C280.374 88.435 280.317 88.354 280.275 88.264C280.233 88.168 280.212 88.066 280.212 87.958C280.212 87.85 280.233 87.748 280.275 87.652C280.317 87.55 280.374 87.463 280.446 87.391C280.518 87.319 280.602 87.262 280.698 87.22C280.794 87.178 280.896 87.157 281.004 87.157C281.112 87.157 281.214 87.178 281.31 87.22C281.406 87.262 281.49 87.319 281.562 87.391C281.634 87.463 281.691 87.55 281.733 87.652C281.781 87.748 281.805 87.85 281.805 87.958ZM285.309 92.611C285.723 92.095 286.2 91.681 286.74 91.369C287.286 91.057 287.892 90.901 288.558 90.901C289.05 90.901 289.482 90.979 289.854 91.135C290.232 91.291 290.544 91.516 290.79 91.81C291.036 92.104 291.222 92.458 291.348 92.872C291.474 93.286 291.537 93.754 291.537 94.276V100H290.673V94.276C290.673 93.436 290.481 92.779 290.097 92.305C289.713 91.825 289.128 91.585 288.342 91.585C287.76 91.585 287.214 91.735 286.704 92.035C286.2 92.329 285.75 92.74 285.354 93.268V100H284.49V91.045H284.967C285.117 91.045 285.204 91.12 285.228 91.27L285.309 92.611ZM297.311 96.04C297.695 96.04 298.037 95.986 298.337 95.878C298.637 95.764 298.889 95.608 299.093 95.41C299.297 95.212 299.453 94.975 299.561 94.699C299.669 94.423 299.723 94.117 299.723 93.781C299.723 93.445 299.666 93.139 299.552 92.863C299.444 92.581 299.285 92.341 299.075 92.143C298.871 91.945 298.619 91.792 298.319 91.684C298.025 91.576 297.689 91.522 297.311 91.522C296.933 91.522 296.594 91.576 296.294 91.684C296 91.792 295.748 91.945 295.538 92.143C295.334 92.341 295.178 92.581 295.07 92.863C294.962 93.139 294.908 93.445 294.908 93.781C294.908 94.117 294.962 94.423 295.07 94.699C295.178 94.975 295.334 95.212 295.538 95.41C295.748 95.608 296 95.764 296.294 95.878C296.594 95.986 296.933 96.04 297.311 96.04ZM300.659 100.603C300.659 100.321 300.584 100.096 300.434 99.928C300.29 99.754 300.095 99.619 299.849 99.523C299.603 99.427 299.318 99.361 298.994 99.325C298.676 99.283 298.34 99.253 297.986 99.235C297.638 99.217 297.287 99.199 296.933 99.181C296.579 99.163 296.246 99.127 295.934 99.073C295.706 99.163 295.496 99.268 295.304 99.388C295.112 99.502 294.947 99.634 294.809 99.784C294.671 99.934 294.563 100.096 294.485 100.27C294.407 100.45 294.368 100.642 294.368 100.846C294.368 101.11 294.434 101.353 294.566 101.575C294.704 101.803 294.902 101.998 295.16 102.16C295.424 102.328 295.745 102.46 296.123 102.556C296.501 102.652 296.936 102.7 297.428 102.7C297.884 102.7 298.307 102.649 298.697 102.547C299.093 102.445 299.435 102.301 299.723 102.115C300.017 101.929 300.245 101.707 300.407 101.449C300.575 101.191 300.659 100.909 300.659 100.603ZM301.595 91.441V91.738C301.595 91.87 301.511 91.951 301.343 91.981L299.975 92.08C300.143 92.308 300.272 92.563 300.362 92.845C300.452 93.127 300.497 93.433 300.497 93.763C300.497 94.195 300.419 94.588 300.263 94.942C300.113 95.29 299.897 95.59 299.615 95.842C299.339 96.088 299.003 96.28 298.607 96.418C298.217 96.556 297.785 96.625 297.311 96.625C296.801 96.625 296.336 96.547 295.916 96.391C295.664 96.535 295.463 96.706 295.313 96.904C295.169 97.096 295.097 97.288 295.097 97.48C295.097 97.738 295.187 97.936 295.367 98.074C295.553 98.212 295.793 98.314 296.087 98.38C296.387 98.44 296.726 98.479 297.104 98.497C297.488 98.515 297.878 98.536 298.274 98.56C298.67 98.578 299.057 98.614 299.435 98.668C299.819 98.722 300.158 98.818 300.452 98.956C300.752 99.088 300.992 99.277 301.172 99.523C301.358 99.763 301.451 100.084 301.451 100.486C301.451 100.858 301.358 101.215 301.172 101.557C300.986 101.899 300.716 102.202 300.362 102.466C300.014 102.73 299.591 102.94 299.093 103.096C298.595 103.258 298.037 103.339 297.419 103.339C296.789 103.339 296.237 103.273 295.763 103.141C295.289 103.015 294.89 102.841 294.566 102.619C294.248 102.403 294.008 102.151 293.846 101.863C293.684 101.575 293.603 101.269 293.603 100.945C293.603 100.471 293.759 100.066 294.071 99.73C294.383 99.388 294.809 99.121 295.349 98.929C295.049 98.827 294.806 98.68 294.62 98.488C294.44 98.29 294.35 98.023 294.35 97.687C294.35 97.561 294.374 97.429 294.422 97.291C294.47 97.153 294.542 97.018 294.638 96.886C294.734 96.748 294.851 96.619 294.989 96.499C295.127 96.379 295.283 96.271 295.457 96.175C295.031 95.929 294.698 95.602 294.458 95.194C294.224 94.786 294.107 94.309 294.107 93.763C294.107 93.331 294.182 92.941 294.332 92.593C294.488 92.239 294.707 91.936 294.989 91.684C295.271 91.432 295.607 91.237 295.997 91.099C296.393 90.961 296.831 90.892 297.311 90.892C297.707 90.892 298.07 90.94 298.4 91.036C298.736 91.132 299.036 91.267 299.3 91.441H301.595ZM308.997 100V91.981L307.737 91.9C307.569 91.882 307.485 91.807 307.485 91.675V91.324H308.997V90.19C308.997 89.68 309.063 89.233 309.195 88.849C309.327 88.459 309.513 88.135 309.753 87.877C309.993 87.619 310.281 87.427 310.617 87.301C310.953 87.169 311.325 87.103 311.733 87.103C311.919 87.103 312.105 87.121 312.291 87.157C312.483 87.187 312.654 87.232 312.804 87.292L312.777 87.706C312.765 87.76 312.738 87.796 312.696 87.814C312.66 87.826 312.606 87.832 312.534 87.832C312.462 87.826 312.369 87.817 312.255 87.805C312.141 87.787 312.009 87.778 311.859 87.778C311.565 87.778 311.292 87.823 311.04 87.913C310.794 87.997 310.581 88.135 310.401 88.327C310.221 88.519 310.08 88.771 309.978 89.083C309.882 89.389 309.834 89.767 309.834 90.217V91.324H312.741V91.963H309.861V100H308.997ZM315.42 93.205C315.558 92.839 315.714 92.515 315.888 92.233C316.068 91.945 316.272 91.702 316.5 91.504C316.734 91.306 316.992 91.156 317.274 91.054C317.562 90.946 317.88 90.892 318.228 90.892C318.414 90.892 318.597 90.91 318.777 90.946C318.957 90.976 319.116 91.033 319.254 91.117L319.182 91.711C319.152 91.807 319.095 91.855 319.011 91.855C318.939 91.855 318.828 91.834 318.678 91.792C318.534 91.75 318.342 91.729 318.102 91.729C317.754 91.729 317.445 91.783 317.175 91.891C316.911 91.993 316.671 92.149 316.455 92.359C316.245 92.569 316.059 92.83 315.897 93.142C315.741 93.448 315.597 93.802 315.465 94.204V100H314.601V91.045H315.06C315.162 91.045 315.234 91.066 315.276 91.108C315.318 91.15 315.345 91.222 315.357 91.324L315.42 93.205ZM325.784 95.671C324.932 95.701 324.197 95.77 323.579 95.878C322.967 95.98 322.46 96.121 322.058 96.301C321.662 96.481 321.368 96.697 321.176 96.949C320.984 97.195 320.888 97.477 320.888 97.795C320.888 98.095 320.936 98.356 321.032 98.578C321.134 98.794 321.266 98.974 321.428 99.118C321.596 99.256 321.788 99.358 322.004 99.424C322.22 99.49 322.445 99.523 322.679 99.523C323.027 99.523 323.345 99.487 323.633 99.415C323.927 99.337 324.197 99.232 324.443 99.1C324.695 98.962 324.929 98.8 325.145 98.614C325.361 98.428 325.574 98.227 325.784 98.011V95.671ZM320.519 92.314C320.987 91.846 321.479 91.492 321.995 91.252C322.511 91.012 323.096 90.892 323.75 90.892C324.23 90.892 324.65 90.97 325.01 91.126C325.37 91.276 325.667 91.495 325.901 91.783C326.141 92.065 326.321 92.41 326.441 92.818C326.561 93.22 326.621 93.67 326.621 94.168V100H326.279C326.099 100 325.988 99.916 325.946 99.748L325.82 98.596C325.574 98.836 325.328 99.052 325.082 99.244C324.842 99.436 324.59 99.598 324.326 99.73C324.062 99.862 323.777 99.964 323.471 100.036C323.165 100.108 322.829 100.144 322.463 100.144C322.157 100.144 321.86 100.099 321.572 100.009C321.284 99.919 321.026 99.781 320.798 99.595C320.576 99.409 320.396 99.172 320.258 98.884C320.126 98.59 320.06 98.239 320.06 97.831C320.06 97.453 320.168 97.102 320.384 96.778C320.6 96.454 320.939 96.172 321.401 95.932C321.863 95.692 322.454 95.5 323.174 95.356C323.9 95.212 324.77 95.128 325.784 95.104V94.168C325.784 93.34 325.604 92.704 325.244 92.26C324.89 91.81 324.362 91.585 323.66 91.585C323.228 91.585 322.859 91.645 322.553 91.765C322.253 91.885 321.998 92.017 321.788 92.161C321.578 92.305 321.407 92.437 321.275 92.557C321.143 92.677 321.032 92.737 320.942 92.737C320.876 92.737 320.822 92.722 320.78 92.692C320.738 92.662 320.702 92.623 320.672 92.575L320.519 92.314ZM329.49 100V91.045H329.967C330.117 91.045 330.204 91.12 330.228 91.27L330.309 92.566C330.657 92.068 331.056 91.666 331.506 91.36C331.956 91.054 332.463 90.901 333.027 90.901C333.681 90.901 334.203 91.09 334.593 91.468C334.989 91.846 335.256 92.371 335.394 93.043C335.502 92.677 335.652 92.359 335.844 92.089C336.042 91.819 336.267 91.597 336.519 91.423C336.771 91.243 337.044 91.111 337.338 91.027C337.638 90.943 337.944 90.901 338.256 90.901C338.7 90.901 339.099 90.976 339.453 91.126C339.807 91.27 340.107 91.486 340.353 91.774C340.599 92.062 340.788 92.416 340.92 92.836C341.052 93.256 341.118 93.736 341.118 94.276V100H340.263V94.276C340.263 93.4 340.074 92.734 339.696 92.278C339.318 91.816 338.778 91.585 338.076 91.585C337.764 91.585 337.464 91.642 337.176 91.756C336.894 91.87 336.642 92.041 336.42 92.269C336.204 92.491 336.03 92.77 335.898 93.106C335.772 93.442 335.709 93.832 335.709 94.276V100H334.845V94.276C334.845 93.406 334.671 92.74 334.323 92.278C333.981 91.816 333.477 91.585 332.811 91.585C332.325 91.585 331.875 91.729 331.461 92.017C331.047 92.305 330.678 92.704 330.354 93.214V100H329.49ZM350.256 94.618C350.256 94.138 350.187 93.709 350.049 93.331C349.917 92.947 349.728 92.623 349.482 92.359C349.236 92.095 348.942 91.894 348.6 91.756C348.264 91.612 347.892 91.54 347.484 91.54C347.022 91.54 346.608 91.612 346.242 91.756C345.876 91.9 345.558 92.107 345.288 92.377C345.024 92.647 344.811 92.971 344.649 93.349C344.487 93.727 344.379 94.15 344.325 94.618H350.256ZM344.28 95.167V95.338C344.28 96.01 344.358 96.601 344.514 97.111C344.67 97.621 344.892 98.05 345.18 98.398C345.468 98.74 345.816 98.998 346.224 99.172C346.632 99.346 347.088 99.433 347.592 99.433C348.042 99.433 348.432 99.385 348.762 99.289C349.092 99.187 349.368 99.076 349.59 98.956C349.818 98.83 349.998 98.719 350.13 98.623C350.262 98.521 350.358 98.47 350.418 98.47C350.496 98.47 350.556 98.5 350.598 98.56L350.832 98.848C350.688 99.028 350.496 99.196 350.256 99.352C350.022 99.508 349.758 99.643 349.464 99.757C349.176 99.865 348.864 99.952 348.528 100.018C348.198 100.084 347.865 100.117 347.529 100.117C346.917 100.117 346.359 100.012 345.855 99.802C345.351 99.586 344.919 99.274 344.559 98.866C344.199 98.458 343.92 97.96 343.722 97.372C343.53 96.778 343.434 96.1 343.434 95.338C343.434 94.696 343.524 94.105 343.704 93.565C343.89 93.019 344.154 92.551 344.496 92.161C344.844 91.765 345.267 91.456 345.765 91.234C346.269 91.012 346.839 90.901 347.475 90.901C347.979 90.901 348.447 90.988 348.879 91.162C349.311 91.336 349.686 91.591 350.004 91.927C350.322 92.257 350.571 92.665 350.751 93.151C350.937 93.637 351.03 94.195 351.03 94.825C351.03 94.957 351.012 95.047 350.976 95.095C350.94 95.143 350.88 95.167 350.796 95.167H344.28ZM365.143 91.045L362.155 100H361.516C361.414 100 361.345 99.937 361.309 99.811L358.861 92.539C358.831 92.449 358.804 92.359 358.78 92.269C358.756 92.179 358.735 92.089 358.717 91.999C358.687 92.179 358.642 92.359 358.582 92.539L356.098 99.811C356.062 99.937 355.99 100 355.882 100H355.27L352.282 91.045H352.93C353.014 91.045 353.083 91.069 353.137 91.117C353.191 91.159 353.227 91.207 353.245 91.261L355.504 98.326C355.54 98.464 355.573 98.599 355.603 98.731C355.633 98.857 355.657 98.983 355.675 99.109C355.711 98.983 355.747 98.857 355.783 98.731C355.819 98.599 355.861 98.464 355.909 98.326L358.303 91.198C358.345 91.066 358.429 91 358.555 91H358.906C359.038 91 359.125 91.066 359.167 91.198L361.543 98.326C361.585 98.464 361.624 98.596 361.66 98.722C361.696 98.848 361.729 98.974 361.759 99.1C361.783 98.974 361.807 98.848 361.831 98.722C361.861 98.596 361.897 98.464 361.939 98.326L364.216 91.261C364.24 91.195 364.279 91.144 364.333 91.108C364.387 91.066 364.45 91.045 364.522 91.045H365.143ZM370.512 90.901C371.154 90.901 371.727 91.012 372.231 91.234C372.741 91.45 373.17 91.759 373.518 92.161C373.866 92.563 374.13 93.049 374.31 93.619C374.496 94.183 374.589 94.816 374.589 95.518C374.589 96.22 374.496 96.853 374.31 97.417C374.13 97.981 373.866 98.464 373.518 98.866C373.17 99.268 372.741 99.577 372.231 99.793C371.727 100.009 371.154 100.117 370.512 100.117C369.87 100.117 369.294 100.009 368.784 99.793C368.28 99.577 367.851 99.268 367.497 98.866C367.149 98.464 366.882 97.981 366.696 97.417C366.516 96.853 366.426 96.22 366.426 95.518C366.426 94.816 366.516 94.183 366.696 93.619C366.882 93.049 367.149 92.563 367.497 92.161C367.851 91.759 368.28 91.45 368.784 91.234C369.294 91.012 369.87 90.901 370.512 90.901ZM370.512 99.442C371.046 99.442 371.511 99.352 371.907 99.172C372.309 98.986 372.642 98.722 372.906 98.38C373.176 98.038 373.377 97.627 373.509 97.147C373.641 96.661 373.707 96.118 373.707 95.518C373.707 94.924 373.641 94.384 373.509 93.898C373.377 93.412 373.176 92.998 372.906 92.656C372.642 92.308 372.309 92.041 371.907 91.855C371.511 91.669 371.046 91.576 370.512 91.576C369.978 91.576 369.51 91.669 369.108 91.855C368.712 92.041 368.379 92.308 368.109 92.656C367.845 92.998 367.644 93.412 367.506 93.898C367.374 94.384 367.308 94.924 367.308 95.518C367.308 96.118 367.374 96.661 367.506 97.147C367.644 97.627 367.845 98.038 368.109 98.38C368.379 98.722 368.712 98.986 369.108 99.172C369.51 99.352 369.978 99.442 370.512 99.442ZM377.822 93.205C377.96 92.839 378.116 92.515 378.29 92.233C378.47 91.945 378.674 91.702 378.902 91.504C379.136 91.306 379.394 91.156 379.676 91.054C379.964 90.946 380.282 90.892 380.63 90.892C380.816 90.892 380.999 90.91 381.179 90.946C381.359 90.976 381.518 91.033 381.656 91.117L381.584 91.711C381.554 91.807 381.497 91.855 381.413 91.855C381.341 91.855 381.23 91.834 381.08 91.792C380.936 91.75 380.744 91.729 380.504 91.729C380.156 91.729 379.847 91.783 379.577 91.891C379.313 91.993 379.073 92.149 378.857 92.359C378.647 92.569 378.461 92.83 378.299 93.142C378.143 93.448 377.999 93.802 377.867 94.204V100H377.003V91.045H377.462C377.564 91.045 377.636 91.066 377.678 91.108C377.72 91.15 377.747 91.222 377.759 91.324L377.822 93.205ZM384.231 86.905V94.888H384.645C384.729 94.888 384.807 94.876 384.879 94.852C384.957 94.828 385.041 94.771 385.131 94.681L388.722 91.27C388.782 91.198 388.848 91.144 388.92 91.108C388.992 91.066 389.082 91.045 389.19 91.045H389.946L385.995 94.798C385.887 94.924 385.77 95.023 385.644 95.095C385.74 95.143 385.821 95.2 385.887 95.266C385.959 95.326 386.028 95.398 386.094 95.482L390.243 100H389.496C389.412 100 389.334 99.988 389.262 99.964C389.196 99.934 389.133 99.877 389.073 99.793L385.311 95.761C385.263 95.707 385.215 95.662 385.167 95.626C385.125 95.59 385.08 95.563 385.032 95.545C384.984 95.521 384.927 95.506 384.861 95.5C384.801 95.488 384.726 95.482 384.636 95.482H384.231V100H383.367V86.905H384.231Z" fill="#272727"/>
</svg>

