<svg width="378" height="139" viewBox="0 0 378 139" fill="none" xmlns="http://www.w3.org/2000/svg">
<path d="M19.5489 23.7939L62.8915 61.7746L57.6412 117.629L36.4168 138.853L9.04834 127.124L0 102.883L19.5489 23.7939Z" fill="#9025AD"/>
<path d="M19.5508 23.7938L63.6754 62.6681L104.002 69.3706L85.9052 17.5381L51.6109 0L19.5508 23.7938Z" fill="#AE2CD1"/>
<path d="M57.6406 117.628L62.7792 61.8862L103.999 69.3707L92.6052 94.0581L72.0509 137.848L57.6406 117.628Z" fill="#9200BA"/>
<path d="M57.6425 117.628L36.418 138.853L72.0528 137.848L57.6425 117.628Z" fill="#8401A8"/>
<path d="M171.277 27.789V69H164.522V42.381C164.522 41.317 164.579 40.1675 164.693 38.9325L152.239 62.331C151.65 63.452 150.747 64.0125 149.531 64.0125H148.448C147.232 64.0125 146.33 63.452 145.741 62.331L133.144 38.847C133.201 39.474 133.248 40.0915 133.286 40.6995C133.324 41.3075 133.343 41.868 133.343 42.381V69H126.589V27.789H132.374C132.716 27.789 133.011 27.7985 133.258 27.8175C133.505 27.8365 133.723 27.884 133.913 27.96C134.122 28.036 134.303 28.1595 134.455 28.3305C134.626 28.5015 134.787 28.7295 134.939 29.0145L147.28 51.9C147.603 52.508 147.897 53.135 148.163 53.781C148.448 54.427 148.724 55.092 148.99 55.776C149.256 55.073 149.531 54.3985 149.816 53.7525C150.101 53.0875 150.405 52.451 150.728 51.843L162.898 29.0145C163.05 28.7295 163.211 28.5015 163.382 28.3305C163.553 28.1595 163.734 28.036 163.924 27.96C164.133 27.884 164.361 27.8365 164.608 27.8175C164.855 27.7985 165.149 27.789 165.491 27.789H171.277ZM199.783 56.517C197.75 56.612 196.04 56.7925 194.653 57.0585C193.266 57.3055 192.155 57.6285 191.319 58.0275C190.483 58.4265 189.884 58.892 189.523 59.424C189.162 59.956 188.982 60.5355 188.982 61.1625C188.982 62.3975 189.343 63.281 190.065 63.813C190.806 64.345 191.765 64.611 192.943 64.611C194.387 64.611 195.632 64.3545 196.677 63.8415C197.741 63.3095 198.776 62.5115 199.783 61.4475V56.517ZM183.652 43.8345C187.015 40.7565 191.062 39.2175 195.793 39.2175C197.503 39.2175 199.033 39.5025 200.382 40.0725C201.731 40.6235 202.871 41.4025 203.802 42.4095C204.733 43.3975 205.436 44.585 205.911 45.972C206.405 47.359 206.652 48.879 206.652 50.532V69H203.46C202.795 69 202.282 68.905 201.921 68.715C201.56 68.506 201.275 68.0975 201.066 67.4895L200.439 65.3805C199.698 66.0455 198.976 66.6345 198.273 67.1475C197.57 67.6415 196.838 68.0595 196.078 68.4015C195.318 68.7435 194.501 69 193.627 69.171C192.772 69.361 191.822 69.456 190.777 69.456C189.542 69.456 188.402 69.2945 187.357 68.9715C186.312 68.6295 185.41 68.126 184.65 67.461C183.89 66.796 183.301 65.9695 182.883 64.9815C182.465 63.9935 182.256 62.844 182.256 61.533C182.256 60.792 182.379 60.0605 182.626 59.3385C182.873 58.5975 183.272 57.8945 183.823 57.2295C184.393 56.5645 185.125 55.9375 186.018 55.3485C186.911 54.7595 188.003 54.2465 189.295 53.8095C190.606 53.3725 192.126 53.021 193.855 52.755C195.584 52.47 197.56 52.299 199.783 52.242V50.532C199.783 48.575 199.365 47.131 198.529 46.2C197.693 45.25 196.487 44.775 194.91 44.775C193.77 44.775 192.82 44.908 192.06 45.174C191.319 45.44 190.663 45.744 190.093 46.086C189.523 46.409 189.001 46.7035 188.526 46.9695C188.07 47.2355 187.557 47.3685 186.987 47.3685C186.493 47.3685 186.075 47.245 185.733 46.998C185.391 46.732 185.115 46.428 184.906 46.086L183.652 43.8345ZM228.339 69.456C225.793 69.456 223.836 68.7435 222.468 67.3185C221.119 65.8745 220.444 63.889 220.444 61.362V45.0315H217.452C217.072 45.0315 216.749 44.908 216.483 44.661C216.217 44.414 216.084 44.0435 216.084 43.5495V40.7565L220.786 39.987L222.268 32.007C222.363 31.627 222.544 31.3325 222.81 31.1235C223.076 30.9145 223.418 30.81 223.836 30.81H227.484V40.0155H239.653L241.164 32.007C241.259 31.627 241.43 31.3325 241.677 31.1235C241.943 30.9145 242.294 30.81 242.731 30.81H246.351V40.0155H254.16V45.0315H246.351V60.8775C246.351 61.7895 246.579 62.502 247.035 63.015C247.491 63.528 248.108 63.7845 248.887 63.7845C249.305 63.7845 249.666 63.737 249.97 63.642C250.274 63.528 250.531 63.414 250.74 63.3C250.968 63.186 251.167 63.0815 251.338 62.9865C251.509 62.8725 251.68 62.8155 251.851 62.8155C252.06 62.8155 252.231 62.8725 252.364 62.9865C252.497 63.0815 252.64 63.2335 252.792 63.4425L254.901 66.8625C253.875 67.7175 252.697 68.3635 251.367 68.8005C250.037 69.2375 248.659 69.456 247.234 69.456C244.688 69.456 242.731 68.7435 241.363 67.3185C239.995 65.8745 239.311 63.889 239.311 61.362V45.0315H227.484V60.8775C227.484 61.7895 227.702 62.502 228.139 63.015C228.595 63.528 229.213 63.7845 229.992 63.7845C230.429 63.7845 230.79 63.737 231.075 63.642C231.379 63.528 231.635 63.414 231.844 63.3C232.072 63.186 232.272 63.0815 232.443 62.9865C232.614 62.8725 232.785 62.8155 232.956 62.8155C233.165 62.8155 233.336 62.8725 233.469 62.9865C233.602 63.0815 233.744 63.2335 233.896 63.4425L236.005 66.8625C234.979 67.7175 233.801 68.3635 232.471 68.8005C231.141 69.2375 229.764 69.456 228.339 69.456ZM282.986 51.0165C282.986 50.1045 282.853 49.2495 282.587 48.4515C282.34 47.6345 281.96 46.922 281.447 46.314C280.934 45.706 280.278 45.231 279.48 44.889C278.701 44.528 277.789 44.3475 276.744 44.3475C274.711 44.3475 273.106 44.927 271.928 46.086C270.769 47.245 270.028 48.8885 269.705 51.0165H282.986ZM269.562 55.263C269.676 56.764 269.942 58.0655 270.36 59.1675C270.778 60.2505 271.329 61.153 272.013 61.875C272.697 62.578 273.505 63.11 274.436 63.471C275.386 63.813 276.431 63.984 277.571 63.984C278.711 63.984 279.689 63.851 280.506 63.585C281.342 63.319 282.064 63.0245 282.672 62.7015C283.299 62.3785 283.841 62.084 284.297 61.818C284.772 61.552 285.228 61.419 285.665 61.419C286.254 61.419 286.691 61.6375 286.976 62.0745L288.999 64.6395C288.22 65.5515 287.346 66.321 286.377 66.948C285.408 67.556 284.392 68.05 283.328 68.43C282.283 68.791 281.209 69.0475 280.107 69.1995C279.024 69.3515 277.97 69.4275 276.944 69.4275C274.911 69.4275 273.02 69.095 271.272 68.43C269.524 67.746 268.004 66.7485 266.712 65.4375C265.42 64.1075 264.404 62.4735 263.663 60.5355C262.922 58.5785 262.551 56.3175 262.551 53.7525C262.551 51.7575 262.874 49.886 263.52 48.138C264.166 46.371 265.088 44.8415 266.285 43.5495C267.501 42.2385 268.973 41.203 270.702 40.443C272.45 39.683 274.417 39.303 276.602 39.303C278.445 39.303 280.145 39.5975 281.703 40.1865C283.261 40.7755 284.601 41.64 285.722 42.78C286.843 43.901 287.717 45.288 288.344 46.941C288.99 48.575 289.313 50.4465 289.313 52.5555C289.313 53.6195 289.199 54.3415 288.971 54.7215C288.743 55.0825 288.306 55.263 287.66 55.263H269.562ZM306.936 44.832C307.848 43.084 308.931 41.716 310.185 40.728C311.439 39.721 312.921 39.2175 314.631 39.2175C315.98 39.2175 317.063 39.512 317.88 40.101L317.424 45.3735C317.329 45.7155 317.187 45.9625 316.997 46.1145C316.826 46.2475 316.588 46.314 316.284 46.314C315.999 46.314 315.572 46.2665 315.002 46.1715C314.451 46.0765 313.909 46.029 313.377 46.029C312.598 46.029 311.905 46.143 311.297 46.371C310.689 46.599 310.138 46.9315 309.644 47.3685C309.169 47.7865 308.741 48.2995 308.361 48.9075C308 49.5155 307.658 50.209 307.335 50.988V69H300.296V39.759H304.428C305.15 39.759 305.654 39.892 305.939 40.158C306.224 40.405 306.414 40.861 306.509 41.526L306.936 44.832ZM335.565 69H327.87V27.789H335.565V69ZM375.375 69H368.592C368.079 69 367.661 68.867 367.338 68.601C367.034 68.335 366.777 68.031 366.568 67.689L360.384 57.5145C360.289 57.8375 360.175 58.1415 360.042 58.4265C359.928 58.7115 359.795 58.9775 359.643 59.2245L354.171 67.689C353.962 68.012 353.705 68.316 353.401 68.601C353.097 68.867 352.717 69 352.261 69H345.963L355.995 53.9235L346.362 39.759H353.145C353.658 39.759 354.038 39.835 354.285 39.987C354.532 40.12 354.75 40.348 354.94 40.671L361.068 50.418C361.277 49.772 361.571 49.1355 361.951 48.5085L366.882 40.8135C367.3 40.1105 367.841 39.759 368.506 39.759H374.976L365.371 53.61L375.375 69Z" fill="#272727"/>
<path d="M135.512 89.1915C135.455 89.2992 135.373 89.353 135.265 89.353C135.183 89.353 135.075 89.296 134.942 89.182C134.815 89.0617 134.641 88.9318 134.42 88.7925C134.198 88.6468 133.919 88.5138 133.584 88.3935C133.254 88.2732 132.846 88.213 132.358 88.213C131.87 88.213 131.44 88.2827 131.066 88.422C130.699 88.5613 130.388 88.7513 130.135 88.992C129.888 89.2327 129.698 89.5113 129.565 89.828C129.438 90.1447 129.375 90.4772 129.375 90.8255C129.375 91.2815 129.47 91.6583 129.66 91.956C129.856 92.2537 130.113 92.507 130.43 92.716C130.746 92.925 131.104 93.1023 131.503 93.248C131.908 93.3873 132.323 93.5267 132.748 93.666C133.172 93.8053 133.584 93.9605 133.983 94.1315C134.388 94.2962 134.749 94.5052 135.066 94.7585C135.382 95.0118 135.636 95.3253 135.826 95.699C136.022 96.0663 136.12 96.5255 136.12 97.0765C136.12 97.6402 136.022 98.1722 135.826 98.6725C135.636 99.1665 135.357 99.5972 134.99 99.9645C134.622 100.332 134.173 100.623 133.641 100.838C133.109 101.048 132.501 101.152 131.817 101.152C130.93 101.152 130.167 100.997 129.527 100.687C128.887 100.37 128.327 99.9392 127.846 99.3945L128.112 98.9765C128.188 98.8815 128.276 98.834 128.378 98.834C128.435 98.834 128.507 98.872 128.596 98.948C128.685 99.024 128.792 99.119 128.919 99.233C129.046 99.3407 129.198 99.461 129.375 99.594C129.552 99.7207 129.758 99.841 129.993 99.955C130.227 100.063 130.496 100.154 130.8 100.23C131.104 100.306 131.449 100.344 131.836 100.344C132.368 100.344 132.843 100.265 133.261 100.107C133.679 99.9423 134.03 99.7207 134.315 99.442C134.606 99.1633 134.828 98.834 134.98 98.454C135.132 98.0677 135.208 97.656 135.208 97.219C135.208 96.744 135.11 96.3545 134.914 96.0505C134.724 95.7402 134.47 95.4837 134.154 95.281C133.837 95.072 133.476 94.8978 133.071 94.7585C132.672 94.6192 132.26 94.483 131.836 94.35C131.411 94.217 130.996 94.0682 130.591 93.9035C130.192 93.7388 129.834 93.5298 129.518 93.2765C129.201 93.0168 128.944 92.697 128.748 92.317C128.558 91.9307 128.463 91.4493 128.463 90.873C128.463 90.4233 128.549 89.9895 128.72 89.5715C128.891 89.1535 129.141 88.7862 129.47 88.4695C129.799 88.1465 130.205 87.89 130.686 87.7C131.174 87.5037 131.728 87.4055 132.349 87.4055C133.045 87.4055 133.669 87.5163 134.22 87.738C134.777 87.9597 135.284 88.2985 135.74 88.7545L135.512 89.1915ZM139.585 91.5475V101H138.682V91.5475H139.585ZM139.974 88.289C139.974 88.403 139.949 88.5107 139.898 88.612C139.854 88.707 139.794 88.7925 139.718 88.8685C139.642 88.9445 139.553 89.0047 139.452 89.049C139.35 89.0933 139.243 89.1155 139.129 89.1155C139.015 89.1155 138.907 89.0933 138.806 89.049C138.704 89.0047 138.616 88.9445 138.54 88.8685C138.464 88.7925 138.403 88.707 138.359 88.612C138.315 88.5107 138.293 88.403 138.293 88.289C138.293 88.175 138.315 88.0673 138.359 87.966C138.403 87.8583 138.464 87.7665 138.54 87.6905C138.616 87.6145 138.704 87.5543 138.806 87.51C138.907 87.4657 139.015 87.4435 139.129 87.4435C139.243 87.4435 139.35 87.4657 139.452 87.51C139.553 87.5543 139.642 87.6145 139.718 87.6905C139.794 87.7665 139.854 87.8583 139.898 87.966C139.949 88.0673 139.974 88.175 139.974 88.289ZM142.808 101V91.5475H143.312C143.47 91.5475 143.562 91.6267 143.587 91.785L143.673 93.153C144.04 92.6273 144.461 92.203 144.936 91.88C145.411 91.557 145.946 91.3955 146.542 91.3955C147.232 91.3955 147.783 91.595 148.195 91.994C148.613 92.393 148.894 92.9472 149.04 93.6565C149.154 93.2702 149.312 92.9345 149.515 92.6495C149.724 92.3645 149.962 92.1302 150.228 91.9465C150.494 91.7565 150.782 91.6172 151.092 91.5285C151.409 91.4398 151.732 91.3955 152.061 91.3955C152.53 91.3955 152.951 91.4747 153.325 91.633C153.698 91.785 154.015 92.013 154.275 92.317C154.534 92.621 154.734 92.9947 154.873 93.438C155.012 93.8813 155.082 94.388 155.082 94.958V101H154.18V94.958C154.18 94.0333 153.98 93.3303 153.581 92.849C153.182 92.3613 152.612 92.1175 151.871 92.1175C151.542 92.1175 151.225 92.1777 150.921 92.298C150.623 92.4183 150.357 92.5988 150.123 92.8395C149.895 93.0738 149.711 93.3683 149.572 93.723C149.439 94.0777 149.373 94.4893 149.373 94.958V101H148.461V94.958C148.461 94.0397 148.277 93.3367 147.91 92.849C147.549 92.3613 147.017 92.1175 146.314 92.1175C145.801 92.1175 145.326 92.2695 144.889 92.5735C144.452 92.8775 144.062 93.2987 143.72 93.837V101H142.808ZM159.009 98.9385C159.193 99.2108 159.383 99.442 159.579 99.632C159.782 99.8157 159.994 99.9677 160.216 100.088C160.437 100.202 160.672 100.284 160.919 100.335C161.172 100.386 161.438 100.411 161.717 100.411C162.274 100.411 162.762 100.31 163.18 100.107C163.598 99.9043 163.946 99.6193 164.225 99.252C164.51 98.8783 164.722 98.435 164.861 97.922C165.007 97.4027 165.08 96.8327 165.08 96.212C165.08 94.806 164.82 93.7737 164.301 93.115C163.781 92.45 163.037 92.1175 162.068 92.1175C161.441 92.1175 160.874 92.279 160.368 92.602C159.861 92.925 159.408 93.3747 159.009 93.951V98.9385ZM158.971 93.248C159.389 92.678 159.877 92.2252 160.434 91.8895C160.998 91.5538 161.628 91.386 162.325 91.386C163.484 91.386 164.386 91.7882 165.032 92.5925C165.684 93.3968 166.011 94.6033 166.011 96.212C166.011 96.9023 165.919 97.5483 165.735 98.15C165.558 98.7453 165.292 99.2647 164.937 99.708C164.589 100.145 164.158 100.49 163.645 100.743C163.138 100.997 162.553 101.124 161.888 101.124C161.248 101.124 160.694 101.006 160.225 100.772C159.756 100.538 159.351 100.192 159.009 99.7365V104.344H158.097V91.5475H158.601C158.759 91.5475 158.851 91.6267 158.876 91.785L158.971 93.248ZM169.578 87.1775V101H168.666V87.1775H169.578ZM179.405 95.319C179.405 94.8123 179.332 94.3595 179.186 93.9605C179.047 93.5552 178.847 93.2132 178.588 92.9345C178.328 92.6558 178.018 92.4437 177.657 92.298C177.302 92.146 176.909 92.07 176.479 92.07C175.991 92.07 175.554 92.146 175.168 92.298C174.781 92.45 174.446 92.6685 174.161 92.9535C173.882 93.2385 173.657 93.5805 173.486 93.9795C173.315 94.3785 173.201 94.825 173.144 95.319H179.405ZM173.097 95.8985V96.079C173.097 96.7883 173.179 97.4122 173.344 97.9505C173.508 98.4888 173.743 98.9417 174.047 99.309C174.351 99.67 174.718 99.9423 175.149 100.126C175.579 100.31 176.061 100.401 176.593 100.401C177.068 100.401 177.479 100.351 177.828 100.249C178.176 100.142 178.467 100.025 178.702 99.898C178.942 99.765 179.132 99.6478 179.272 99.5465C179.411 99.4388 179.512 99.385 179.576 99.385C179.658 99.385 179.721 99.4167 179.766 99.48L180.013 99.784C179.861 99.974 179.658 100.151 179.405 100.316C179.158 100.481 178.879 100.623 178.569 100.743C178.265 100.857 177.935 100.949 177.581 101.019C177.232 101.089 176.881 101.124 176.526 101.124C175.88 101.124 175.291 101.013 174.759 100.791C174.227 100.563 173.771 100.234 173.391 99.803C173.011 99.3723 172.717 98.8467 172.508 98.226C172.305 97.599 172.204 96.8833 172.204 96.079C172.204 95.4013 172.299 94.7775 172.489 94.2075C172.685 93.6312 172.964 93.1372 173.325 92.7255C173.692 92.3075 174.139 91.9813 174.664 91.747C175.196 91.5127 175.798 91.3955 176.469 91.3955C177.001 91.3955 177.495 91.4873 177.951 91.671C178.407 91.8547 178.803 92.1238 179.139 92.4785C179.474 92.8268 179.737 93.2575 179.927 93.7705C180.124 94.2835 180.222 94.8725 180.222 95.5375C180.222 95.6768 180.203 95.7718 180.165 95.8225C180.127 95.8732 180.063 95.8985 179.975 95.8985H173.097ZM193.132 96.4305C192.232 96.4622 191.457 96.535 190.804 96.649C190.158 96.7567 189.623 96.9055 189.199 97.0955C188.781 97.2855 188.47 97.5135 188.268 97.7795C188.065 98.0392 187.964 98.3368 187.964 98.6725C187.964 98.9892 188.014 99.2647 188.116 99.499C188.223 99.727 188.363 99.917 188.534 100.069C188.711 100.215 188.914 100.322 189.142 100.392C189.37 100.462 189.607 100.496 189.854 100.496C190.222 100.496 190.557 100.458 190.861 100.382C191.172 100.3 191.457 100.189 191.716 100.05C191.982 99.9043 192.229 99.7333 192.457 99.537C192.685 99.3407 192.91 99.1285 193.132 98.9005V96.4305ZM187.574 92.887C188.068 92.393 188.588 92.0193 189.132 91.766C189.677 91.5127 190.294 91.386 190.985 91.386C191.491 91.386 191.935 91.4683 192.315 91.633C192.695 91.7913 193.008 92.0225 193.255 92.3265C193.509 92.6242 193.699 92.9883 193.825 93.419C193.952 93.8433 194.015 94.3183 194.015 94.844V101H193.654C193.464 101 193.347 100.911 193.303 100.734L193.17 99.518C192.91 99.7713 192.65 99.9993 192.391 100.202C192.137 100.405 191.871 100.576 191.593 100.715C191.314 100.854 191.013 100.962 190.69 101.038C190.367 101.114 190.013 101.152 189.626 101.152C189.303 101.152 188.99 101.105 188.686 101.01C188.382 100.914 188.109 100.769 187.869 100.572C187.634 100.376 187.444 100.126 187.299 99.822C187.159 99.5117 187.09 99.1412 187.09 98.7105C187.09 98.3115 187.204 97.941 187.432 97.599C187.66 97.257 188.018 96.9593 188.505 96.706C188.993 96.4527 189.617 96.25 190.377 96.098C191.143 95.946 192.061 95.8573 193.132 95.832V94.844C193.132 93.97 192.942 93.2987 192.562 92.83C192.188 92.355 191.631 92.1175 190.89 92.1175C190.434 92.1175 190.044 92.1808 189.721 92.3075C189.405 92.4342 189.135 92.5735 188.914 92.7255C188.692 92.8775 188.512 93.0168 188.372 93.1435C188.233 93.2702 188.116 93.3335 188.021 93.3335C187.951 93.3335 187.894 93.3177 187.85 93.286C187.805 93.2543 187.767 93.2132 187.736 93.1625L187.574 92.887ZM197.908 93.2005C198.345 92.6558 198.848 92.2188 199.418 91.8895C199.995 91.5602 200.634 91.3955 201.337 91.3955C201.857 91.3955 202.313 91.4778 202.705 91.6425C203.104 91.8072 203.434 92.0447 203.693 92.355C203.953 92.6653 204.149 93.039 204.282 93.476C204.415 93.913 204.482 94.407 204.482 94.958V101H203.57V94.958C203.57 94.0713 203.367 93.3778 202.962 92.8775C202.557 92.3708 201.939 92.1175 201.109 92.1175C200.495 92.1175 199.919 92.2758 199.38 92.5925C198.848 92.9028 198.373 93.3367 197.955 93.894V101H197.043V91.5475H197.547C197.705 91.5475 197.797 91.6267 197.822 91.785L197.908 93.2005ZM213.94 93.5805C213.579 93.0358 213.177 92.6527 212.734 92.431C212.297 92.2093 211.796 92.0985 211.233 92.0985C210.675 92.0985 210.188 92.1998 209.77 92.4025C209.352 92.6052 209 92.8933 208.715 93.267C208.436 93.6343 208.224 94.0777 208.079 94.597C207.939 95.11 207.87 95.6768 207.87 96.2975C207.87 97.7035 208.126 98.739 208.639 99.404C209.158 100.063 209.906 100.392 210.881 100.392C211.502 100.392 212.069 100.23 212.582 99.9075C213.095 99.5845 213.547 99.1317 213.94 98.549V93.5805ZM214.843 87.1775V101H214.349C214.184 101 214.089 100.918 214.064 100.753L213.969 99.2615C213.551 99.8315 213.063 100.284 212.506 100.62C211.948 100.956 211.321 101.124 210.625 101.124C209.459 101.124 208.554 100.721 207.908 99.917C207.262 99.1127 206.939 97.9062 206.939 96.2975C206.939 95.6072 207.027 94.9643 207.205 94.369C207.388 93.7673 207.654 93.248 208.003 92.811C208.351 92.3677 208.778 92.0193 209.285 91.766C209.798 91.5127 210.387 91.386 211.052 91.386C211.692 91.386 212.246 91.5032 212.715 91.7375C213.183 91.9718 213.592 92.3202 213.94 92.7825V87.1775H214.843ZM224.11 87.1775V101H223.198V87.1775H224.11ZM228.313 91.5475V101H227.411V91.5475H228.313ZM228.703 88.289C228.703 88.403 228.677 88.5107 228.627 88.612C228.582 88.707 228.522 88.7925 228.446 88.8685C228.37 88.9445 228.281 89.0047 228.18 89.049C228.079 89.0933 227.971 89.1155 227.857 89.1155C227.743 89.1155 227.635 89.0933 227.534 89.049C227.433 89.0047 227.344 88.9445 227.268 88.8685C227.192 88.7925 227.132 88.707 227.088 88.612C227.043 88.5107 227.021 88.403 227.021 88.289C227.021 88.175 227.043 88.0673 227.088 87.966C227.132 87.8583 227.192 87.7665 227.268 87.6905C227.344 87.6145 227.433 87.5543 227.534 87.51C227.635 87.4657 227.743 87.4435 227.857 87.4435C227.971 87.4435 228.079 87.4657 228.18 87.51C228.281 87.5543 228.37 87.6145 228.446 87.6905C228.522 87.7665 228.582 87.8583 228.627 87.966C228.677 88.0673 228.703 88.175 228.703 88.289ZM234.624 96.82C235.029 96.82 235.39 96.763 235.707 96.649C236.024 96.5287 236.29 96.364 236.505 96.155C236.72 95.946 236.885 95.6958 236.999 95.4045C237.113 95.1132 237.17 94.7902 237.17 94.4355C237.17 94.0808 237.11 93.7578 236.99 93.4665C236.876 93.1688 236.708 92.9155 236.486 92.7065C236.271 92.4975 236.005 92.336 235.688 92.222C235.378 92.108 235.023 92.051 234.624 92.051C234.225 92.051 233.867 92.108 233.551 92.222C233.24 92.336 232.974 92.4975 232.753 92.7065C232.537 92.9155 232.373 93.1688 232.259 93.4665C232.145 93.7578 232.088 94.0808 232.088 94.4355C232.088 94.7902 232.145 95.1132 232.259 95.4045C232.373 95.6958 232.537 95.946 232.753 96.155C232.974 96.364 233.24 96.5287 233.551 96.649C233.867 96.763 234.225 96.82 234.624 96.82ZM238.158 101.637C238.158 101.339 238.079 101.101 237.921 100.924C237.769 100.74 237.563 100.598 237.303 100.496C237.043 100.395 236.743 100.325 236.401 100.287C236.065 100.243 235.71 100.211 235.337 100.192C234.969 100.173 234.599 100.154 234.225 100.135C233.851 100.116 233.5 100.078 233.171 100.021C232.93 100.116 232.708 100.227 232.506 100.354C232.303 100.474 232.129 100.614 231.983 100.772C231.837 100.93 231.723 101.101 231.641 101.285C231.559 101.475 231.518 101.678 231.518 101.893C231.518 102.172 231.587 102.428 231.727 102.663C231.872 102.903 232.081 103.109 232.354 103.28C232.632 103.457 232.971 103.597 233.37 103.698C233.769 103.799 234.228 103.85 234.748 103.85C235.229 103.85 235.675 103.796 236.087 103.689C236.505 103.581 236.866 103.429 237.17 103.233C237.48 103.036 237.721 102.802 237.892 102.53C238.069 102.257 238.158 101.96 238.158 101.637ZM239.146 91.9655V92.279C239.146 92.4183 239.057 92.5038 238.88 92.5355L237.436 92.64C237.613 92.8807 237.75 93.1498 237.845 93.4475C237.94 93.7452 237.987 94.0682 237.987 94.4165C237.987 94.8725 237.905 95.2873 237.74 95.661C237.582 96.0283 237.354 96.345 237.056 96.611C236.765 96.8707 236.41 97.0733 235.992 97.219C235.58 97.3647 235.124 97.4375 234.624 97.4375C234.086 97.4375 233.595 97.3552 233.152 97.1905C232.886 97.3425 232.673 97.523 232.515 97.732C232.363 97.9347 232.287 98.1373 232.287 98.34C232.287 98.6123 232.382 98.8213 232.572 98.967C232.768 99.1127 233.022 99.2203 233.332 99.29C233.649 99.3533 234.007 99.3945 234.406 99.4135C234.811 99.4325 235.223 99.4547 235.641 99.48C236.059 99.499 236.467 99.537 236.866 99.594C237.271 99.651 237.629 99.7523 237.94 99.898C238.256 100.037 238.51 100.237 238.7 100.496C238.896 100.75 238.994 101.089 238.994 101.513C238.994 101.906 238.896 102.283 238.7 102.644C238.503 103.005 238.218 103.324 237.845 103.603C237.477 103.882 237.031 104.103 236.505 104.268C235.979 104.439 235.39 104.525 234.738 104.525C234.073 104.525 233.49 104.455 232.99 104.316C232.49 104.183 232.069 103.999 231.727 103.765C231.391 103.537 231.138 103.271 230.967 102.967C230.796 102.663 230.71 102.34 230.71 101.998C230.71 101.497 230.875 101.07 231.204 100.715C231.533 100.354 231.983 100.072 232.553 99.8695C232.236 99.7618 231.98 99.6067 231.784 99.404C231.594 99.195 231.499 98.9132 231.499 98.5585C231.499 98.4255 231.524 98.2862 231.575 98.1405C231.625 97.9948 231.701 97.8523 231.803 97.713C231.904 97.5673 232.027 97.4312 232.173 97.3045C232.319 97.1778 232.483 97.0638 232.667 96.9625C232.217 96.7028 231.866 96.3577 231.613 95.927C231.366 95.4963 231.242 94.9928 231.242 94.4165C231.242 93.9605 231.321 93.5488 231.48 93.1815C231.644 92.8078 231.875 92.488 232.173 92.222C232.471 91.956 232.825 91.7502 233.237 91.6045C233.655 91.4588 234.117 91.386 234.624 91.386C235.042 91.386 235.425 91.4367 235.774 91.538C236.128 91.6393 236.445 91.7818 236.724 91.9655H239.146ZM242.153 93.1435C242.59 92.6115 243.087 92.1872 243.644 91.8705C244.208 91.5538 244.838 91.3955 245.535 91.3955C246.054 91.3955 246.51 91.4778 246.903 91.6425C247.302 91.8072 247.631 92.0447 247.891 92.355C248.15 92.6653 248.347 93.039 248.48 93.476C248.613 93.913 248.679 94.407 248.679 94.958V101H247.767V94.958C247.767 94.0713 247.564 93.3778 247.159 92.8775C246.754 92.3708 246.136 92.1175 245.307 92.1175C244.692 92.1175 244.116 92.2758 243.578 92.5925C243.046 92.9028 242.571 93.3367 242.153 93.894V101H241.241V87.1775H242.153V93.1435ZM254.141 101.152C253.501 101.152 253.001 100.975 252.64 100.62C252.285 100.265 252.108 99.7175 252.108 98.9765V92.5165H250.75C250.68 92.5165 250.623 92.4975 250.579 92.4595C250.534 92.4215 250.512 92.3677 250.512 92.298V91.9465L252.127 91.8325L252.355 88.4505C252.368 88.3935 252.393 88.3428 252.431 88.2985C252.469 88.2542 252.523 88.232 252.593 88.232H253.02V91.842H256.003V92.5165H253.02V98.929C253.02 99.1887 253.052 99.4135 253.115 99.6035C253.185 99.7872 253.277 99.9392 253.391 100.059C253.511 100.18 253.65 100.268 253.809 100.325C253.967 100.382 254.138 100.411 254.322 100.411C254.55 100.411 254.746 100.379 254.911 100.316C255.075 100.246 255.218 100.173 255.338 100.097C255.458 100.015 255.557 99.9423 255.633 99.879C255.709 99.8093 255.769 99.7745 255.813 99.7745C255.864 99.7745 255.914 99.8062 255.965 99.8695L256.212 100.268C255.971 100.534 255.664 100.75 255.291 100.914C254.923 101.073 254.54 101.152 254.141 101.152ZM269.678 93.5805C269.317 93.0358 268.915 92.6527 268.472 92.431C268.035 92.2093 267.535 92.0985 266.971 92.0985C266.414 92.0985 265.926 92.1998 265.508 92.4025C265.09 92.6052 264.738 92.8933 264.453 93.267C264.175 93.6343 263.963 94.0777 263.817 94.597C263.678 95.11 263.608 95.6768 263.608 96.2975C263.608 97.7035 263.864 98.739 264.377 99.404C264.897 100.063 265.644 100.392 266.619 100.392C267.24 100.392 267.807 100.23 268.32 99.9075C268.833 99.5845 269.286 99.1317 269.678 98.549V93.5805ZM270.581 87.1775V101H270.087C269.922 101 269.827 100.918 269.802 100.753L269.707 99.2615C269.289 99.8315 268.801 100.284 268.244 100.62C267.687 100.956 267.06 101.124 266.363 101.124C265.198 101.124 264.292 100.721 263.646 99.917C263 99.1127 262.677 97.9062 262.677 96.2975C262.677 95.6072 262.766 94.9643 262.943 94.369C263.127 93.7673 263.393 93.248 263.741 92.811C264.089 92.3677 264.517 92.0193 265.023 91.766C265.536 91.5127 266.125 91.386 266.79 91.386C267.43 91.386 267.984 91.5032 268.453 91.7375C268.922 91.9718 269.33 92.3202 269.678 92.7825V87.1775H270.581ZM280.324 95.319C280.324 94.8123 280.251 94.3595 280.105 93.9605C279.966 93.5552 279.766 93.2132 279.507 92.9345C279.247 92.6558 278.937 92.4437 278.576 92.298C278.221 92.146 277.828 92.07 277.398 92.07C276.91 92.07 276.473 92.146 276.087 92.298C275.7 92.45 275.365 92.6685 275.08 92.9535C274.801 93.2385 274.576 93.5805 274.405 93.9795C274.234 94.3785 274.12 94.825 274.063 95.319H280.324ZM274.016 95.8985V96.079C274.016 96.7883 274.098 97.4122 274.263 97.9505C274.427 98.4888 274.662 98.9417 274.966 99.309C275.27 99.67 275.637 99.9423 276.068 100.126C276.498 100.31 276.98 100.401 277.512 100.401C277.987 100.401 278.398 100.351 278.747 100.249C279.095 100.142 279.386 100.025 279.621 99.898C279.861 99.765 280.051 99.6478 280.191 99.5465C280.33 99.4388 280.431 99.385 280.495 99.385C280.577 99.385 280.64 99.4167 280.685 99.48L280.932 99.784C280.78 99.974 280.577 100.151 280.324 100.316C280.077 100.481 279.798 100.623 279.488 100.743C279.184 100.857 278.854 100.949 278.5 101.019C278.151 101.089 277.8 101.124 277.445 101.124C276.799 101.124 276.21 101.013 275.678 100.791C275.146 100.563 274.69 100.234 274.31 99.803C273.93 99.3723 273.636 98.8467 273.427 98.226C273.224 97.599 273.123 96.8833 273.123 96.079C273.123 95.4013 273.218 94.7775 273.408 94.2075C273.604 93.6312 273.883 93.1372 274.244 92.7255C274.611 92.3075 275.058 91.9813 275.583 91.747C276.115 91.5127 276.717 91.3955 277.388 91.3955C277.92 91.3955 278.414 91.4873 278.87 91.671C279.326 91.8547 279.722 92.1238 280.058 92.4785C280.393 92.8268 280.656 93.2575 280.846 93.7705C281.043 94.2835 281.141 94.8725 281.141 95.5375C281.141 95.6768 281.122 95.7718 281.084 95.8225C281.046 95.8732 280.982 95.8985 280.894 95.8985H274.016ZM290.232 95.319C290.232 94.8123 290.159 94.3595 290.013 93.9605C289.874 93.5552 289.675 93.2132 289.415 92.9345C289.155 92.6558 288.845 92.4437 288.484 92.298C288.129 92.146 287.737 92.07 287.306 92.07C286.818 92.07 286.381 92.146 285.995 92.298C285.609 92.45 285.273 92.6685 284.988 92.9535C284.709 93.2385 284.484 93.5805 284.313 93.9795C284.142 94.3785 284.028 94.825 283.971 95.319H290.232ZM283.924 95.8985V96.079C283.924 96.7883 284.006 97.4122 284.171 97.9505C284.336 98.4888 284.57 98.9417 284.874 99.309C285.178 99.67 285.545 99.9423 285.976 100.126C286.407 100.31 286.888 100.401 287.42 100.401C287.895 100.401 288.307 100.351 288.655 100.249C289.003 100.142 289.295 100.025 289.529 99.898C289.77 99.765 289.96 99.6478 290.099 99.5465C290.238 99.4388 290.34 99.385 290.403 99.385C290.485 99.385 290.549 99.4167 290.593 99.48L290.84 99.784C290.688 99.974 290.485 100.151 290.232 100.316C289.985 100.481 289.706 100.623 289.396 100.743C289.092 100.857 288.763 100.949 288.408 101.019C288.06 101.089 287.708 101.124 287.353 101.124C286.707 101.124 286.118 101.013 285.586 100.791C285.054 100.563 284.598 100.234 284.218 99.803C283.838 99.3723 283.544 98.8467 283.335 98.226C283.132 97.599 283.031 96.8833 283.031 96.079C283.031 95.4013 283.126 94.7775 283.316 94.2075C283.512 93.6312 283.791 93.1372 284.152 92.7255C284.519 92.3075 284.966 91.9813 285.491 91.747C286.023 91.5127 286.625 91.3955 287.296 91.3955C287.828 91.3955 288.322 91.4873 288.778 91.671C289.234 91.8547 289.63 92.1238 289.966 92.4785C290.302 92.8268 290.564 93.2575 290.754 93.7705C290.951 94.2835 291.049 94.8725 291.049 95.5375C291.049 95.6768 291.03 95.7718 290.992 95.8225C290.954 95.8732 290.891 95.8985 290.802 95.8985H283.924ZM294.421 98.9385C294.605 99.2108 294.795 99.442 294.991 99.632C295.194 99.8157 295.406 99.9677 295.628 100.088C295.849 100.202 296.084 100.284 296.331 100.335C296.584 100.386 296.85 100.411 297.129 100.411C297.686 100.411 298.174 100.31 298.592 100.107C299.01 99.9043 299.358 99.6193 299.637 99.252C299.922 98.8783 300.134 98.435 300.273 97.922C300.419 97.4027 300.492 96.8327 300.492 96.212C300.492 94.806 300.232 93.7737 299.713 93.115C299.193 92.45 298.449 92.1175 297.48 92.1175C296.853 92.1175 296.286 92.279 295.78 92.602C295.273 92.925 294.82 93.3747 294.421 93.951V98.9385ZM294.383 93.248C294.801 92.678 295.289 92.2252 295.846 91.8895C296.41 91.5538 297.04 91.386 297.737 91.386C298.896 91.386 299.798 91.7882 300.444 92.5925C301.097 93.3968 301.423 94.6033 301.423 96.212C301.423 96.9023 301.331 97.5483 301.147 98.15C300.97 98.7453 300.704 99.2647 300.349 99.708C300.001 100.145 299.57 100.49 299.057 100.743C298.551 100.997 297.965 101.124 297.3 101.124C296.66 101.124 296.106 101.006 295.637 100.772C295.169 100.538 294.763 100.192 294.421 99.7365V104.344H293.509V91.5475H294.013C294.171 91.5475 294.263 91.6267 294.288 91.785L294.383 93.248ZM310.148 87.1775V101H309.236V87.1775H310.148ZM319.975 95.319C319.975 94.8123 319.902 94.3595 319.757 93.9605C319.617 93.5552 319.418 93.2132 319.158 92.9345C318.898 92.6558 318.588 92.4437 318.227 92.298C317.872 92.146 317.48 92.07 317.049 92.07C316.561 92.07 316.124 92.146 315.738 92.298C315.352 92.45 315.016 92.6685 314.731 92.9535C314.452 93.2385 314.228 93.5805 314.057 93.9795C313.886 94.3785 313.772 94.825 313.715 95.319H319.975ZM313.667 95.8985V96.079C313.667 96.7883 313.749 97.4122 313.914 97.9505C314.079 98.4888 314.313 98.9417 314.617 99.309C314.921 99.67 315.288 99.9423 315.719 100.126C316.15 100.31 316.631 100.401 317.163 100.401C317.638 100.401 318.05 100.351 318.398 100.249C318.746 100.142 319.038 100.025 319.272 99.898C319.513 99.765 319.703 99.6478 319.842 99.5465C319.981 99.4388 320.083 99.385 320.146 99.385C320.228 99.385 320.292 99.4167 320.336 99.48L320.583 99.784C320.431 99.974 320.228 100.151 319.975 100.316C319.728 100.481 319.449 100.623 319.139 100.743C318.835 100.857 318.506 100.949 318.151 101.019C317.803 101.089 317.451 101.124 317.097 101.124C316.451 101.124 315.862 101.013 315.33 100.791C314.798 100.563 314.342 100.234 313.962 99.803C313.582 99.3723 313.287 98.8467 313.078 98.226C312.875 97.599 312.774 96.8833 312.774 96.079C312.774 95.4013 312.869 94.7775 313.059 94.2075C313.255 93.6312 313.534 93.1372 313.895 92.7255C314.262 92.3075 314.709 91.9813 315.235 91.747C315.767 91.5127 316.368 91.3955 317.04 91.3955C317.572 91.3955 318.066 91.4873 318.522 91.671C318.978 91.8547 319.373 92.1238 319.709 92.4785C320.045 92.8268 320.308 93.2575 320.498 93.7705C320.694 94.2835 320.792 94.8725 320.792 95.5375C320.792 95.6768 320.773 95.7718 320.735 95.8225C320.697 95.8732 320.634 95.8985 320.545 95.8985H313.667ZM328.544 96.4305C327.645 96.4622 326.869 96.535 326.216 96.649C325.57 96.7567 325.035 96.9055 324.611 97.0955C324.193 97.2855 323.883 97.5135 323.68 97.7795C323.477 98.0392 323.376 98.3368 323.376 98.6725C323.376 98.9892 323.427 99.2647 323.528 99.499C323.636 99.727 323.775 99.917 323.946 100.069C324.123 100.215 324.326 100.322 324.554 100.392C324.782 100.462 325.019 100.496 325.266 100.496C325.634 100.496 325.969 100.458 326.273 100.382C326.584 100.3 326.869 100.189 327.128 100.05C327.394 99.9043 327.641 99.7333 327.869 99.537C328.097 99.3407 328.322 99.1285 328.544 98.9005V96.4305ZM322.986 92.887C323.48 92.393 324 92.0193 324.544 91.766C325.089 91.5127 325.707 91.386 326.397 91.386C326.904 91.386 327.347 91.4683 327.727 91.633C328.107 91.7913 328.42 92.0225 328.667 92.3265C328.921 92.6242 329.111 92.9883 329.237 93.419C329.364 93.8433 329.427 94.3183 329.427 94.844V101H329.066C328.876 101 328.759 100.911 328.715 100.734L328.582 99.518C328.322 99.7713 328.063 99.9993 327.803 100.202C327.55 100.405 327.284 100.576 327.005 100.715C326.726 100.854 326.425 100.962 326.102 101.038C325.779 101.114 325.425 101.152 325.038 101.152C324.715 101.152 324.402 101.105 324.098 101.01C323.794 100.914 323.522 100.769 323.281 100.572C323.047 100.376 322.857 100.126 322.711 99.822C322.572 99.5117 322.502 99.1412 322.502 98.7105C322.502 98.3115 322.616 97.941 322.844 97.599C323.072 97.257 323.43 96.9593 323.917 96.706C324.405 96.4527 325.029 96.25 325.789 96.098C326.555 95.946 327.474 95.8573 328.544 95.832V94.844C328.544 93.97 328.354 93.2987 327.974 92.83C327.6 92.355 327.043 92.1175 326.302 92.1175C325.846 92.1175 325.456 92.1808 325.133 92.3075C324.817 92.4342 324.548 92.5735 324.326 92.7255C324.104 92.8775 323.924 93.0168 323.784 93.1435C323.645 93.2702 323.528 93.3335 323.433 93.3335C323.363 93.3335 323.306 93.3177 323.262 93.286C323.218 93.2543 323.18 93.2132 323.148 93.1625L322.986 92.887ZM333.32 93.8275C333.466 93.4412 333.63 93.0992 333.814 92.8015C334.004 92.4975 334.219 92.241 334.46 92.032C334.707 91.823 334.979 91.6647 335.277 91.557C335.581 91.443 335.917 91.386 336.284 91.386C336.48 91.386 336.673 91.405 336.863 91.443C337.053 91.4747 337.221 91.5348 337.367 91.6235L337.291 92.2505C337.259 92.3518 337.199 92.4025 337.11 92.4025C337.034 92.4025 336.917 92.3803 336.759 92.336C336.607 92.2917 336.404 92.2695 336.151 92.2695C335.784 92.2695 335.457 92.3265 335.172 92.4405C334.894 92.5482 334.64 92.7128 334.412 92.9345C334.191 93.1562 333.994 93.4317 333.823 93.761C333.659 94.084 333.507 94.4577 333.367 94.882V101H332.455V91.5475H332.94C333.048 91.5475 333.124 91.5697 333.168 91.614C333.212 91.6583 333.241 91.7343 333.253 91.842L333.32 93.8275ZM340.037 93.2005C340.474 92.6558 340.977 92.2188 341.547 91.8895C342.124 91.5602 342.763 91.3955 343.466 91.3955C343.986 91.3955 344.442 91.4778 344.834 91.6425C345.233 91.8072 345.563 92.0447 345.822 92.355C346.082 92.6653 346.278 93.039 346.411 93.476C346.544 93.913 346.611 94.407 346.611 94.958V101H345.699V94.958C345.699 94.0713 345.496 93.3778 345.091 92.8775C344.685 92.3708 344.068 92.1175 343.238 92.1175C342.624 92.1175 342.048 92.2758 341.509 92.5925C340.977 92.9028 340.502 93.3367 340.084 93.894V101H339.172V91.5475H339.676C339.834 91.5475 339.926 91.6267 339.951 91.785L340.037 93.2005ZM350.626 91.5475V101H349.723V91.5475H350.626ZM351.015 88.289C351.015 88.403 350.99 88.5107 350.939 88.612C350.895 88.707 350.835 88.7925 350.759 88.8685C350.683 88.9445 350.594 89.0047 350.493 89.049C350.391 89.0933 350.284 89.1155 350.17 89.1155C350.056 89.1155 349.948 89.0933 349.847 89.049C349.745 89.0047 349.657 88.9445 349.581 88.8685C349.505 88.7925 349.444 88.707 349.4 88.612C349.356 88.5107 349.334 88.403 349.334 88.289C349.334 88.175 349.356 88.0673 349.4 87.966C349.444 87.8583 349.505 87.7665 349.581 87.6905C349.657 87.6145 349.745 87.5543 349.847 87.51C349.948 87.4657 350.056 87.4435 350.17 87.4435C350.284 87.4435 350.391 87.4657 350.493 87.51C350.594 87.5543 350.683 87.6145 350.759 87.6905C350.835 87.7665 350.895 87.8583 350.939 87.966C350.99 88.0673 351.015 88.175 351.015 88.289ZM354.714 93.2005C355.151 92.6558 355.654 92.2188 356.224 91.8895C356.8 91.5602 357.44 91.3955 358.143 91.3955C358.662 91.3955 359.118 91.4778 359.511 91.6425C359.91 91.8072 360.239 92.0447 360.499 92.355C360.759 92.6653 360.955 93.039 361.088 93.476C361.221 93.913 361.288 94.407 361.288 94.958V101H360.376V94.958C360.376 94.0713 360.173 93.3778 359.768 92.8775C359.362 92.3708 358.745 92.1175 357.915 92.1175C357.301 92.1175 356.724 92.2758 356.186 92.5925C355.654 92.9028 355.179 93.3367 354.761 93.894V101H353.849V91.5475H354.353C354.511 91.5475 354.603 91.6267 354.628 91.785L354.714 93.2005ZM367.383 96.82C367.788 96.82 368.149 96.763 368.466 96.649C368.782 96.5287 369.048 96.364 369.264 96.155C369.479 95.946 369.644 95.6958 369.758 95.4045C369.872 95.1132 369.929 94.7902 369.929 94.4355C369.929 94.0808 369.869 93.7578 369.748 93.4665C369.634 93.1688 369.466 92.9155 369.245 92.7065C369.029 92.4975 368.763 92.336 368.447 92.222C368.136 92.108 367.782 92.051 367.383 92.051C366.984 92.051 366.626 92.108 366.309 92.222C365.999 92.336 365.733 92.4975 365.511 92.7065C365.296 92.9155 365.131 93.1688 365.017 93.4665C364.903 93.7578 364.846 94.0808 364.846 94.4355C364.846 94.7902 364.903 95.1132 365.017 95.4045C365.131 95.6958 365.296 95.946 365.511 96.155C365.733 96.364 365.999 96.5287 366.309 96.649C366.626 96.763 366.984 96.82 367.383 96.82ZM370.917 101.637C370.917 101.339 370.838 101.101 370.679 100.924C370.527 100.74 370.321 100.598 370.062 100.496C369.802 100.395 369.501 100.325 369.159 100.287C368.824 100.243 368.469 100.211 368.095 100.192C367.728 100.173 367.357 100.154 366.984 100.135C366.61 100.116 366.259 100.078 365.929 100.021C365.689 100.116 365.467 100.227 365.264 100.354C365.062 100.474 364.887 100.614 364.742 100.772C364.596 100.93 364.482 101.101 364.4 101.285C364.317 101.475 364.276 101.678 364.276 101.893C364.276 102.172 364.346 102.428 364.485 102.663C364.631 102.903 364.84 103.109 365.112 103.28C365.391 103.457 365.73 103.597 366.129 103.698C366.528 103.799 366.987 103.85 367.506 103.85C367.988 103.85 368.434 103.796 368.846 103.689C369.264 103.581 369.625 103.429 369.929 103.233C370.239 103.036 370.48 102.802 370.651 102.53C370.828 102.257 370.917 101.96 370.917 101.637ZM371.905 91.9655V92.279C371.905 92.4183 371.816 92.5038 371.639 92.5355L370.195 92.64C370.372 92.8807 370.508 93.1498 370.603 93.4475C370.698 93.7452 370.746 94.0682 370.746 94.4165C370.746 94.8725 370.663 95.2873 370.499 95.661C370.34 96.0283 370.112 96.345 369.815 96.611C369.523 96.8707 369.169 97.0733 368.751 97.219C368.339 97.3647 367.883 97.4375 367.383 97.4375C366.844 97.4375 366.354 97.3552 365.91 97.1905C365.644 97.3425 365.432 97.523 365.274 97.732C365.122 97.9347 365.046 98.1373 365.046 98.34C365.046 98.6123 365.141 98.8213 365.331 98.967C365.527 99.1127 365.78 99.2203 366.091 99.29C366.407 99.3533 366.765 99.3945 367.164 99.4135C367.57 99.4325 367.981 99.4547 368.399 99.48C368.817 99.499 369.226 99.537 369.625 99.594C370.03 99.651 370.388 99.7523 370.698 99.898C371.015 100.037 371.268 100.237 371.458 100.496C371.655 100.75 371.753 101.089 371.753 101.513C371.753 101.906 371.655 102.283 371.458 102.644C371.262 103.005 370.977 103.324 370.603 103.603C370.236 103.882 369.789 104.103 369.264 104.268C368.738 104.439 368.149 104.525 367.497 104.525C366.832 104.525 366.249 104.455 365.749 104.316C365.248 104.183 364.827 103.999 364.485 103.765C364.15 103.537 363.896 103.271 363.725 102.967C363.554 102.663 363.469 102.34 363.469 101.998C363.469 101.497 363.633 101.07 363.963 100.715C364.292 100.354 364.742 100.072 365.312 99.8695C364.995 99.7618 364.739 99.6067 364.542 99.404C364.352 99.195 364.257 98.9132 364.257 98.5585C364.257 98.4255 364.283 98.2862 364.333 98.1405C364.384 97.9948 364.46 97.8523 364.561 97.713C364.663 97.5673 364.786 97.4312 364.932 97.3045C365.077 97.1778 365.242 97.0638 365.426 96.9625C364.976 96.7028 364.625 96.3577 364.371 95.927C364.124 95.4963 364.001 94.9928 364.001 94.4165C364.001 93.9605 364.08 93.5488 364.238 93.1815C364.403 92.8078 364.634 92.488 364.932 92.222C365.229 91.956 365.584 91.7502 365.996 91.6045C366.414 91.4588 366.876 91.386 367.383 91.386C367.801 91.386 368.184 91.4367 368.532 91.538C368.887 91.6393 369.204 91.7818 369.482 91.9655H371.905ZM129.119 126V117.535L127.789 117.45C127.611 117.431 127.523 117.352 127.523 117.212V116.842H129.119V115.645C129.119 115.107 129.188 114.635 129.328 114.229C129.467 113.818 129.663 113.476 129.917 113.203C130.17 112.931 130.474 112.728 130.829 112.595C131.183 112.456 131.576 112.386 132.007 112.386C132.203 112.386 132.399 112.405 132.596 112.443C132.798 112.475 132.979 112.523 133.137 112.586L133.109 113.023C133.096 113.08 133.067 113.118 133.023 113.137C132.985 113.15 132.928 113.156 132.852 113.156C132.776 113.15 132.678 113.14 132.558 113.127C132.437 113.108 132.298 113.099 132.14 113.099C131.829 113.099 131.541 113.146 131.275 113.241C131.015 113.33 130.791 113.476 130.601 113.678C130.411 113.881 130.262 114.147 130.154 114.476C130.053 114.799 130.002 115.198 130.002 115.673V116.842H133.071V117.516H130.031V126H129.119ZM135.898 118.827C136.044 118.441 136.208 118.099 136.392 117.801C136.582 117.497 136.797 117.241 137.038 117.032C137.285 116.823 137.557 116.665 137.855 116.557C138.159 116.443 138.495 116.386 138.862 116.386C139.058 116.386 139.252 116.405 139.442 116.443C139.632 116.475 139.799 116.535 139.945 116.623L139.869 117.25C139.837 117.352 139.777 117.402 139.689 117.402C139.613 117.402 139.495 117.38 139.337 117.336C139.185 117.292 138.982 117.269 138.729 117.269C138.362 117.269 138.036 117.326 137.751 117.44C137.472 117.548 137.219 117.713 136.991 117.934C136.769 118.156 136.573 118.432 136.402 118.761C136.237 119.084 136.085 119.458 135.946 119.882V126H135.034V116.547H135.518C135.626 116.547 135.702 116.57 135.746 116.614C135.79 116.658 135.819 116.734 135.832 116.842L135.898 118.827ZM146.838 121.43C145.938 121.462 145.163 121.535 144.51 121.649C143.864 121.757 143.329 121.905 142.905 122.095C142.487 122.285 142.176 122.513 141.974 122.779C141.771 123.039 141.67 123.337 141.67 123.672C141.67 123.989 141.72 124.265 141.822 124.499C141.929 124.727 142.069 124.917 142.24 125.069C142.417 125.215 142.62 125.322 142.848 125.392C143.076 125.462 143.313 125.496 143.56 125.496C143.928 125.496 144.263 125.458 144.567 125.382C144.878 125.3 145.163 125.189 145.422 125.05C145.688 124.904 145.935 124.733 146.163 124.537C146.391 124.341 146.616 124.128 146.838 123.9V121.43ZM141.28 117.887C141.774 117.393 142.294 117.019 142.838 116.766C143.383 116.513 144 116.386 144.691 116.386C145.197 116.386 145.641 116.468 146.021 116.633C146.401 116.791 146.714 117.022 146.961 117.326C147.215 117.624 147.405 117.988 147.531 118.419C147.658 118.843 147.721 119.318 147.721 119.844V126H147.36C147.17 126 147.053 125.911 147.009 125.734L146.876 124.518C146.616 124.771 146.356 124.999 146.097 125.202C145.843 125.405 145.577 125.576 145.299 125.715C145.02 125.854 144.719 125.962 144.396 126.038C144.073 126.114 143.719 126.152 143.332 126.152C143.009 126.152 142.696 126.105 142.392 126.01C142.088 125.914 141.815 125.769 141.575 125.572C141.34 125.376 141.15 125.126 141.005 124.822C140.865 124.512 140.796 124.141 140.796 123.71C140.796 123.311 140.91 122.941 141.138 122.599C141.366 122.257 141.724 121.959 142.211 121.706C142.699 121.453 143.323 121.25 144.083 121.098C144.849 120.946 145.767 120.857 146.838 120.832V119.844C146.838 118.97 146.648 118.299 146.268 117.83C145.894 117.355 145.337 117.117 144.596 117.117C144.14 117.117 143.75 117.181 143.427 117.307C143.111 117.434 142.841 117.573 142.62 117.725C142.398 117.877 142.218 118.017 142.078 118.143C141.939 118.27 141.822 118.333 141.727 118.333C141.657 118.333 141.6 118.318 141.556 118.286C141.511 118.254 141.473 118.213 141.442 118.162L141.28 117.887ZM150.749 126V116.547H151.253C151.411 116.547 151.503 116.627 151.528 116.785L151.614 118.153C151.981 117.627 152.402 117.203 152.877 116.88C153.352 116.557 153.888 116.395 154.483 116.395C155.173 116.395 155.724 116.595 156.136 116.994C156.554 117.393 156.836 117.947 156.981 118.656C157.095 118.27 157.254 117.934 157.456 117.649C157.665 117.364 157.903 117.13 158.169 116.946C158.435 116.756 158.723 116.617 159.033 116.528C159.35 116.44 159.673 116.395 160.002 116.395C160.471 116.395 160.892 116.475 161.266 116.633C161.64 116.785 161.956 117.013 162.216 117.317C162.476 117.621 162.675 117.995 162.814 118.438C162.954 118.881 163.023 119.388 163.023 119.958V126H162.121V119.958C162.121 119.033 161.921 118.33 161.522 117.849C161.123 117.361 160.553 117.117 159.812 117.117C159.483 117.117 159.166 117.178 158.862 117.298C158.565 117.418 158.299 117.599 158.064 117.839C157.836 118.074 157.653 118.368 157.513 118.723C157.38 119.078 157.314 119.489 157.314 119.958V126H156.402V119.958C156.402 119.04 156.218 118.337 155.851 117.849C155.49 117.361 154.958 117.117 154.255 117.117C153.742 117.117 153.267 117.269 152.83 117.573C152.393 117.877 152.003 118.299 151.661 118.837V126H150.749ZM172.669 120.319C172.669 119.812 172.597 119.359 172.451 118.96C172.312 118.555 172.112 118.213 171.852 117.934C171.593 117.656 171.282 117.444 170.921 117.298C170.567 117.146 170.174 117.07 169.743 117.07C169.256 117.07 168.819 117.146 168.432 117.298C168.046 117.45 167.71 117.668 167.425 117.953C167.147 118.238 166.922 118.58 166.751 118.979C166.58 119.378 166.466 119.825 166.409 120.319H172.669ZM166.361 120.898V121.079C166.361 121.788 166.444 122.412 166.608 122.95C166.773 123.489 167.007 123.942 167.311 124.309C167.615 124.67 167.983 124.942 168.413 125.126C168.844 125.31 169.325 125.401 169.857 125.401C170.332 125.401 170.744 125.351 171.092 125.249C171.441 125.142 171.732 125.025 171.966 124.898C172.207 124.765 172.397 124.648 172.536 124.546C172.676 124.439 172.777 124.385 172.84 124.385C172.923 124.385 172.986 124.417 173.03 124.48L173.277 124.784C173.125 124.974 172.923 125.151 172.669 125.316C172.422 125.481 172.144 125.623 171.833 125.743C171.529 125.857 171.2 125.949 170.845 126.019C170.497 126.089 170.146 126.124 169.791 126.124C169.145 126.124 168.556 126.013 168.024 125.791C167.492 125.563 167.036 125.234 166.656 124.803C166.276 124.372 165.981 123.847 165.772 123.226C165.57 122.599 165.468 121.883 165.468 121.079C165.468 120.401 165.563 119.777 165.753 119.207C165.95 118.631 166.228 118.137 166.589 117.725C166.957 117.307 167.403 116.981 167.929 116.747C168.461 116.513 169.063 116.395 169.734 116.395C170.266 116.395 170.76 116.487 171.216 116.671C171.672 116.855 172.068 117.124 172.403 117.478C172.739 117.827 173.002 118.257 173.192 118.77C173.388 119.283 173.486 119.872 173.486 120.537C173.486 120.677 173.467 120.772 173.429 120.822C173.391 120.873 173.328 120.898 173.239 120.898H166.361ZM188.384 116.547L185.23 126H184.555C184.447 126 184.375 125.933 184.337 125.8L181.753 118.124C181.721 118.029 181.692 117.934 181.667 117.839C181.642 117.744 181.62 117.649 181.601 117.554C181.569 117.744 181.521 117.934 181.458 118.124L178.836 125.8C178.798 125.933 178.722 126 178.608 126H177.962L174.808 116.547H175.492C175.581 116.547 175.654 116.573 175.711 116.623C175.768 116.668 175.806 116.718 175.825 116.775L178.209 124.233C178.247 124.379 178.282 124.521 178.314 124.66C178.345 124.793 178.371 124.926 178.39 125.059C178.428 124.926 178.466 124.793 178.504 124.66C178.542 124.521 178.586 124.379 178.637 124.233L181.164 116.709C181.208 116.57 181.297 116.5 181.43 116.5H181.8C181.939 116.5 182.031 116.57 182.076 116.709L184.584 124.233C184.628 124.379 184.669 124.518 184.707 124.651C184.745 124.784 184.78 124.917 184.812 125.05C184.837 124.917 184.862 124.784 184.888 124.651C184.919 124.518 184.957 124.379 185.002 124.233L187.405 116.775C187.43 116.706 187.472 116.652 187.529 116.614C187.586 116.57 187.652 116.547 187.728 116.547H188.384ZM194.051 116.395C194.729 116.395 195.334 116.513 195.866 116.747C196.404 116.975 196.857 117.301 197.224 117.725C197.591 118.15 197.87 118.663 198.06 119.264C198.256 119.86 198.355 120.528 198.355 121.269C198.355 122.01 198.256 122.678 198.06 123.273C197.87 123.869 197.591 124.379 197.224 124.803C196.857 125.227 196.404 125.553 195.866 125.781C195.334 126.009 194.729 126.124 194.051 126.124C193.373 126.124 192.765 126.009 192.227 125.781C191.695 125.553 191.242 125.227 190.869 124.803C190.501 124.379 190.219 123.869 190.023 123.273C189.833 122.678 189.738 122.01 189.738 121.269C189.738 120.528 189.833 119.86 190.023 119.264C190.219 118.663 190.501 118.15 190.869 117.725C191.242 117.301 191.695 116.975 192.227 116.747C192.765 116.513 193.373 116.395 194.051 116.395ZM194.051 125.411C194.615 125.411 195.106 125.316 195.524 125.126C195.948 124.93 196.299 124.651 196.578 124.29C196.863 123.929 197.075 123.495 197.215 122.988C197.354 122.475 197.424 121.902 197.424 121.269C197.424 120.642 197.354 120.072 197.215 119.559C197.075 119.046 196.863 118.609 196.578 118.248C196.299 117.881 195.948 117.599 195.524 117.402C195.106 117.206 194.615 117.108 194.051 117.108C193.487 117.108 192.993 117.206 192.569 117.402C192.151 117.599 191.8 117.881 191.515 118.248C191.236 118.609 191.024 119.046 190.878 119.559C190.739 120.072 190.669 120.642 190.669 121.269C190.669 121.902 190.739 122.475 190.878 122.988C191.024 123.495 191.236 123.929 191.515 124.29C191.8 124.651 192.151 124.93 192.569 125.126C192.993 125.316 193.487 125.411 194.051 125.411ZM201.767 118.827C201.913 118.441 202.078 118.099 202.261 117.801C202.451 117.497 202.667 117.241 202.907 117.032C203.154 116.823 203.427 116.665 203.724 116.557C204.028 116.443 204.364 116.386 204.731 116.386C204.928 116.386 205.121 116.405 205.311 116.443C205.501 116.475 205.669 116.535 205.814 116.623L205.738 117.25C205.707 117.352 205.646 117.402 205.558 117.402C205.482 117.402 205.365 117.38 205.206 117.336C205.054 117.292 204.852 117.269 204.598 117.269C204.231 117.269 203.905 117.326 203.62 117.44C203.341 117.548 203.088 117.713 202.86 117.934C202.638 118.156 202.442 118.432 202.271 118.761C202.106 119.084 201.954 119.458 201.815 119.882V126H200.903V116.547H201.387C201.495 116.547 201.571 116.57 201.615 116.614C201.66 116.658 201.688 116.734 201.701 116.842L201.767 118.827ZM208.532 112.177V120.604H208.969C209.057 120.604 209.14 120.591 209.216 120.566C209.298 120.541 209.387 120.48 209.482 120.385L213.272 116.785C213.335 116.709 213.405 116.652 213.481 116.614C213.557 116.57 213.652 116.547 213.766 116.547H214.564L210.394 120.509C210.28 120.642 210.156 120.746 210.023 120.822C210.124 120.873 210.21 120.933 210.28 121.003C210.356 121.066 210.428 121.142 210.498 121.231L214.878 126H214.089C214 126 213.918 125.987 213.842 125.962C213.772 125.93 213.706 125.87 213.643 125.781L209.672 121.525C209.621 121.468 209.57 121.421 209.52 121.383C209.475 121.345 209.428 121.316 209.377 121.297C209.326 121.272 209.266 121.256 209.197 121.25C209.133 121.237 209.054 121.231 208.959 121.231H208.532V126H207.62V112.177H208.532Z" fill="#272727"/>
</svg>
